<?xml version="1.0" encoding="utf-8"?>
<!-- Generator: Adobe Illustrator 22.0.0, SVG Export Plug-In . SVG Version: 6.00 Build 0)  -->
<svg version="1.1" id="Capa_1" xmlns="http://www.w3.org/2000/svg" xmlns:xlink="http://www.w3.org/1999/xlink" x="0px" y="0px"
	 viewBox="0 0 325.4 336.5" style="enable-background:new 0 0 325.4 336.5;" xml:space="preserve">
<style type="text/css">
	.st0{fill:#C99400;}
	.st1{fill:#FFDC00;}
	.st2{fill:#FFC000;}
	.st3{fill:#FFFFFF;}
	.st4{fill:#E0E0E0;}
</style>
<path class="st0" d="M226.7,284.7h-41.3V87.3h41.3c54.4,0,98.7,44.3,98.7,98.7S281.1,284.7,226.7,284.7z M225.4,244.7h1.3
	c32.3,0,58.7-26.3,58.7-58.7s-26.3-58.7-58.7-58.7h-1.3V244.7z"/>
<rect x="8.2" y="85" class="st1" width="239" height="251.5"/>
<g>
	<rect x="127.4" y="85" class="st2" width="119.8" height="251.5"/>
	<path class="st2" d="M70.7,307L70.7,307c-15.7,0-28.5-12.8-28.5-28.5V152c0-15.7,12.8-28.5,28.5-28.5l0,0
		c15.7,0,28.5,12.8,28.5,28.5v126.5C99.2,294.2,86.4,307,70.7,307z"/>
</g>
<path class="st0" d="M184.7,307L184.7,307c-15.7,0-28.5-12.8-28.5-28.5V152c0-15.7,12.8-28.5,28.5-28.5l0,0
	c15.7,0,28.5,12.8,28.5,28.5v126.5C213.2,294.2,200.4,307,184.7,307z"/>
<path class="st3" d="M255.3,51c-0.4-16-13.5-28.9-29.6-28.9c-3.2,0-6.2,0.5-9.1,1.4c-8.6,2.8-17.9,0.6-24.9-5.1
	C177.8,7.3,154.3,0,127.7,0S77.6,7.3,63.6,18.5c-7,5.6-16.4,7.8-24.9,5.1c-2.9-0.9-5.9-1.4-9.1-1.4C13.5,22.2,0.4,35.1,0,51.1l0,0
	v105.6c0,11.6,9.4,21.1,21.1,21.1l0,0c11.6,0,21.1-9.4,21.1-21.1v-33c0-11,8.9-19.9,19.9-19.9l0,0c11,0,19.9,8.9,19.9,19.9v12.9
	c0,11,8.9,19.8,19.8,19.8l0,0c11,0,19.8-8.9,19.8-19.8v-1.3c0-17.4,14.1-31.5,31.5-31.5l0,0c17.4,0,31.5,14.1,31.5,31.5v9.5
	c0,19.5,15.8,35.3,35.3,35.3l0,0c19.5,0,35.3-15.8,35.3-35.3L255.3,51L255.3,51z"/>
<path class="st4" d="M255.3,51c-0.4-16-13.5-28.9-29.6-28.9c-3.2,0-6.2,0.5-9.1,1.4c-8.6,2.8-17.9,0.6-24.9-5.1
	C177.8,7.3,154.3,0,127.7,0c-0.1,0-0.2,0-0.3,0v117.1c5.7-8.1,15.1-13.5,25.8-13.5l0,0c17.4,0,31.5,14.1,31.5,31.5v9.5
	c0,19.5,15.8,35.3,35.3,35.3l0,0c19.5,0,35.3-15.8,35.3-35.3L255.3,51L255.3,51z"/>
</svg>
