<?xml version="1.0" encoding="utf-8"?>
<!-- Generator: Adobe Illustrator 22.0.0, SVG Export Plug-In . SVG Version: 6.00 Build 0)  -->
<svg version="1.1" id="Capa_1" xmlns="http://www.w3.org/2000/svg" xmlns:xlink="http://www.w3.org/1999/xlink" x="0px" y="0px"
	 viewBox="0 0 512 512" style="enable-background:new 0 0 512 512;" xml:space="preserve">
<style type="text/css">
	.st0{fill:#FCCC22;}
</style>
<g>
	<g>
		<path class="st0" d="M428,0c-46.3,0-84,37.7-84,84s37.7,84,84,84s84-37.7,84-84S474.3,0,428,0z M428,148c-35.3,0-64-28.7-64-64
			s28.7-64,64-64s64,28.7,64,64S463.3,148,428,148z"/>
	</g>
</g>
<g>
	<g>
		<path class="st0" d="M316.1,150.9c-1.9-1.9-4.4-2.9-7.1-2.9s-5.2,1.1-7.1,2.9c-1.9,1.9-2.9,4.4-2.9,7.1s1.1,5.2,2.9,7.1
			c1.9,1.9,4.4,2.9,7.1,2.9s5.2-1.1,7.1-2.9c1.9-1.9,2.9-4.4,2.9-7.1S317.9,152.8,316.1,150.9z"/>
	</g>
</g>
<g>
	<g>
		<path class="st0" d="M400,197.2c-5.5,0-10,4.5-10,10V252H138v-84h118c5.5,0,10-4.5,10-10s-4.5-10-10-10H128c-5.5,0-10,4.5-10,10
			v104c0,5.5,4.5,10,10,10h272c5.5,0,10-4.5,10-10v-54.8C410,201.6,405.5,197.2,400,197.2z"/>
	</g>
</g>
<g>
	<g>
		<path class="st0" d="M400,356H288.2c-5.5,0-10,4.5-10,10s4.5,10,10,10H400c5.5,0,10-4.5,10-10S405.5,356,400,356z"/>
	</g>
</g>
<g>
	<g>
		<path class="st0" d="M400,304H288.2c-5.5,0-10,4.5-10,10s4.5,10,10,10H400c5.5,0,10-4.5,10-10S405.5,304,400,304z"/>
	</g>
</g>
<g>
	<g>
		<path class="st0" d="M400,408H288.2c-5.5,0-10,4.5-10,10s4.5,10,10,10H400c5.5,0,10-4.5,10-10S405.5,408,400,408z"/>
	</g>
</g>
<g>
	<g>
		<path class="st0" d="M239.8,304h-55.9c-5.5,0-10,4.5-10,10s4.5,10,10,10h45.9v84H128c-5.5,0-10,4.5-10,10s4.5,10,10,10h111.8
			c5.5,0,10-4.5,10-10V314C249.8,308.5,245.3,304,239.8,304z"/>
	</g>
</g>
<g>
	<g>
		<path class="st0" d="M448,201.5c-5.5,0-10,4.5-10,10v86.3c0,5.5,4.5,10,10,10s10-4.5,10-10v-86.3C458,206,453.5,201.5,448,201.5z"
			/>
	</g>
</g>
<g>
	<g>
		<path class="st0" d="M455.1,330.9c-1.9-1.9-4.4-2.9-7.1-2.9s-5.2,1.1-7.1,2.9c-1.9,1.9-2.9,4.4-2.9,7.1s1.1,5.2,2.9,7.1
			c1.9,1.9,4.4,2.9,7.1,2.9s5.2-1.1,7.1-2.9c1.9-1.9,2.9-4.4,2.9-7.1S456.9,332.8,455.1,330.9z"/>
	</g>
</g>
<g>
	<g>
		<path class="st0" d="M448,372.7c-5.5,0-10,4.5-10,10V482c0,5.5-4.5,10-10,10H100c-5.5,0-10-4.5-10-10v-59.1l60.5-47
			c10.9-8.5,15.9-22.1,13.1-35.6c-2.1-10-8.3-18.6-17.1-23.8c-8.8-5.1-19.4-6.3-29.1-3.1l-40.5,13.1c-5.3,1.7-8.1,7.3-6.4,12.6
			c1.7,5.3,7.3,8.1,12.6,6.4l40.5-13.1c4.4-1.4,8.9-0.9,12.9,1.4c4,2.3,6.6,6,7.6,10.5c1.2,6-1,12-5.8,15.7l-64.4,50
			c-2.4,1.9-3.9,4.8-3.9,7.9v64v3.1c0,0.8,0.1,1,0.3,0.9c2,14.6,14.5,26,29.7,26h328c16.5,0,30-13.5,30-30v-99.3
			C458,377.2,453.5,372.7,448,372.7z"/>
	</g>
</g>
<g>
	<g>
		<path class="st0" d="M304.3,68H100c-16.5,0-30,13.5-30,30v122.3L1.6,324.1c-1.1,1.6-1.6,3.5-1.6,5.5V502c0,5.5,4.5,10,10,10
			s10-4.5,10-10V332.6l50-75.9v41.1c0,5.5,4.5,10,10,10s10-4.5,10-10V98c0-5.5,4.5-10,10-10h204.3c5.5,0,10-4.5,10-10
			S309.9,68,304.3,68z"/>
	</g>
</g>
<g>
	<g>
		<path class="st0" d="M465.9,60.8c-3.9-3.9-10.2-3.9-14.1,0L426,86.5l-9.3-9.3c-3.9-3.9-10.2-3.9-14.1,0c-3.9,3.9-3.9,10.2,0,14.1
			l16.4,16.4c2,2,4.5,2.9,7.1,2.9s5.1-1,7.1-2.9l32.8-32.8C469.8,71,469.8,64.7,465.9,60.8z"/>
	</g>
</g>
</svg>
