<?xml version="1.0" encoding="utf-8"?>
<!-- Generator: Adobe Illustrator 22.0.0, SVG Export Plug-In . SVG Version: 6.00 Build 0)  -->
<svg version="1.1" id="Capa_1" xmlns="http://www.w3.org/2000/svg" xmlns:xlink="http://www.w3.org/1999/xlink" x="0px" y="0px"
	 viewBox="0 0 551 543" style="enable-background:new 0 0 551 543;" xml:space="preserve">
<style type="text/css">
	.st0{fill:#FFDA44;stroke:#FFDA44;stroke-width:3;stroke-miterlimit:10;}
</style>
<g>
	<g>
		<path class="st0" d="M469.2,80.6c-51.7-51-120.5-79.1-193.7-79.1s-142,28.1-193.7,79.1C30,131.5,1.5,199.4,1.5,271.5
			s28.5,140,80.3,190.9c51.8,51,120.5,79.1,193.7,79.1s142-28.1,193.7-79.1c51.8-51,80.3-118.8,80.3-190.9S521,131.5,469.2,80.6z
			 M457.9,451.2c-48.7,48-113.5,74.5-182.4,74.5s-133.7-26.5-182.4-74.5S17.6,339.4,17.6,271.5S44.4,139.8,93.1,91.8
			s113.5-74.5,182.4-74.5s133.7,26.5,182.4,74.5s75.6,111.8,75.6,179.7S506.6,403.2,457.9,451.2z"/>
	</g>
</g>
<g>
	<g>
		<path class="st0" d="M275.5,95.7c-4.1,0-7.5,3.4-7.5,7.5v32.1c0,4.1,3.4,7.5,7.5,7.5s7.5-3.4,7.5-7.5v-32.1
			C283,99,279.6,95.7,275.5,95.7z"/>
	</g>
</g>
<g>
	<g>
		<path class="st0" d="M275.5,400.3c-4.1,0-7.5,3.4-7.5,7.5v32.1c0,4.1,3.4,7.5,7.5,7.5s7.5-3.4,7.5-7.5v-32.1
			C283,403.6,279.6,400.3,275.5,400.3z"/>
	</g>
</g>
<g>
	<g>
		<path class="st0" d="M443.8,264h-32.1c-4.1,0-7.5,3.4-7.5,7.5s3.4,7.5,7.5,7.5h32.1c4.1,0,7.5-3.4,7.5-7.5S448,264,443.8,264z"/>
	</g>
</g>
<g>
	<g>
		<path class="st0" d="M139.2,264h-32c-4.1,0-7.5,3.4-7.5,7.5s3.4,7.5,7.5,7.5h32.1c4.1,0,7.5-3.4,7.5-7.5
			C146.7,267.4,143.4,264,139.2,264z"/>
	</g>
</g>
<g>
	<g>
		<path class="st0" d="M387.1,254.3c-0.6-4.1-4.5-6.9-8.6-6.3l-82.2,12.6c-3.9-7.6-11.8-12.7-20.9-12.7c-3.8,0-7.3,0.9-10.5,2.5
			L184.5,170c-2.9-2.9-7.7-2.9-10.6,0c-2.9,2.9-2.9,7.7,0,10.6l80.4,80.4c-1.6,3.2-2.5,6.7-2.5,10.5c0,13,10.6,23.5,23.5,23.5
			c11.6,0,21.3-8.4,23.2-19.5l82.2-12.6C384.9,262.3,387.8,258.4,387.1,254.3z M275.5,280c-4.7,0-8.5-3.8-8.5-8.5s3.8-8.5,8.5-8.5
			s8.5,3.8,8.5,8.5S280.2,280,275.5,280z"/>
	</g>
</g>
<g>
	<g>
		<path class="st0" d="M410.2,113.2c-39.7-33.8-90.3-51.4-142.5-49.5c-52.6,1.9-102,23.5-139.2,60.7s-58.8,86.7-60.7,139.2
			c-1.9,52.3,15.6,102.9,49.5,142.5c1.5,1.7,3.6,2.6,5.7,2.6c1.7,0,3.5-0.6,4.9-1.8c3.2-2.7,3.5-7.4,0.8-10.6
			C97.3,359.5,81,312.5,82.8,264c1.8-48.8,21.8-94.6,56.3-129.2s80.4-54.2,129.2-56c48.5-1.8,95.5,14.5,132.3,45.9
			c3.1,2.7,7.9,2.3,10.6-0.8S413.4,115.9,410.2,113.2z"/>
	</g>
</g>
<g>
	<g>
		<path class="st0" d="M433.8,136.8c-2.7-3.2-7.4-3.5-10.6-0.8s-3.5,7.4-0.8,10.6c31.4,36.8,47.7,83.8,45.9,132.3
			c-1.8,48.8-21.8,94.6-56.3,129.2s-80.4,54.5-129.2,56.3c-48.5,1.8-95.5-14.5-132.3-45.9c-3.2-2.7-7.9-2.3-10.6,0.8
			c-2.7,3.2-2.3,7.9,0.8,10.6c37.7,32.2,85.3,49.6,134.8,49.6c2.6,0,5.2,0,7.8-0.1c52.6-1.9,102-23.5,139.2-60.7
			s58.8-86.7,60.7-139.2C485.2,227,467.6,176.4,433.8,136.8z"/>
	</g>
</g>
</svg>
