<?xml version="1.0" encoding="utf-8"?>
<!-- Generator: Adobe Illustrator 22.0.0, SVG Export Plug-In . SVG Version: 6.00 Build 0)  -->
<svg version="1.1" id="Layer_1" xmlns="http://www.w3.org/2000/svg" xmlns:xlink="http://www.w3.org/1999/xlink" x="0px" y="0px"
	 viewBox="0 0 512.1 539" style="enable-background:new 0 0 512.1 539;" xml:space="preserve">
<style type="text/css">
	.st0{fill:#FCCC22;}
</style>
<rect x="17" y="459" class="st0" width="460" height="80"/>
<path d="M116,52c-2.6,0-5.2,1.1-7.1,2.9S106,59.4,106,62s1.1,5.2,2.9,7.1s4.4,2.9,7.1,2.9s5.2-1.1,7.1-2.9s2.9-4.4,2.9-7.1
	s-1.1-5.2-2.9-7.1S118.6,52,116,52z"/>
<path d="M338.6,52c-2.6,0-5.2,1.1-7.1,2.9s-2.9,4.4-2.9,7.1s1.1,5.2,2.9,7.1s4.4,2.9,7.1,2.9c2.6,0,5.2-1.1,7.1-2.9
	c1.9-1.9,2.9-4.4,2.9-7.1s-1.1-5.2-2.9-7.1C343.8,53.1,341.2,52,338.6,52z"/>
<path d="M482.1,258.2v-36.7c17.2-4.4,29.9-20,29.9-38.6c0-11.2-4.7-21.4-12.2-28.6l-113-131.2c-0.9-1.1-1.7-2.1-2.7-3.1l-0.2-0.3
	c-0.3-0.3-0.6-0.6-0.8-0.9C371.8,7.3,356.1,0,338.6,0H116c-7.3,0-14.3,1.3-20.8,3.6c-0.1,0-0.3,0.1-0.4,0.1L6.5,36.6
	C2.6,38.1,0,41.8,0,46v104c0,3.2,1.6,6.3,4.2,8.1C5.9,159.3,8,160,10,160c1.1,0,2.2-0.2,3.2-0.5L117.7,124h217.4L446,213
	c0.8,0.7,1.7,1.4,2.6,2.1l0,0c0.3,0.2,0.6,0.4,0.9,0.6c3.8,2.6,8,4.6,12.6,5.8v36.7l-26.9,26.9c-1.9,1.9-2.9,4.4-2.9,7.1V318
	c0,5.5,4.5,10,10,10s10-4.5,10-10v-21.7l19.9-19.9l19.9,19.9v19.8c0,5.5,4.5,10,10,10s10-4.5,10-10v-23.9c0-2.6-1.1-5.2-2.9-7.1
	L482.1,258.2z M472.2,202.8c-4.2,0-8.2-1.4-11.4-3.6l-1.8-1.5c-4-3.6-6.6-8.9-6.6-14.7c0-10.9,8.9-19.8,19.8-19.8S492,172.1,492,183
	C492,193.9,483.1,202.8,472.2,202.8z M74,62c0-23.2,18.8-42,42-42s42,18.8,42,42s-18.8,42-42,42S74,85.2,74,62z M161.6,20H293
	c-10.2,11.1-16.4,25.8-16.4,42s6.2,30.9,16.4,42H161.6C171.8,92.9,178,78.2,178,62S171.8,31.1,161.6,20z M296.6,62
	c0-23.2,18.8-42,42-42c12,0,22.9,5.1,30.6,13.3l2.4,2.8c5.6,7.1,9,16.2,9,25.9c0,23.2-18.8,42-42,42S296.6,85.2,296.6,62z
	 M400.2,69.2l64.3,74.6c-16.3,3.2-29,16.4-31.6,32.9l-71.3-57.1C382.3,111.3,397.5,92.2,400.2,69.2z M20,52.9l38.6-14.4
	C55.6,45.8,54,53.7,54,62c0,22.1,11.7,41.6,29.2,52.6L20,136V52.9z"/>
<path d="M393,188H27c-14.9,0-27,12.1-27,27v270c0,14.9,12.1,27,27,27h366c14.9,0,27-12.1,27-27V215C420,200.1,407.9,188,393,188z
	 M400,485c0,3.9-3.1,7-7,7H27c-3.9,0-7-3.1-7-7V215c0-3.9,3.1-7,7-7h366c3.9,0,7,3.1,7,7V485z"/>
<path d="M292.3,452c-2.6,0-5.2,1.1-7.1,2.9c-1.9,1.9-2.9,4.4-2.9,7.1s1.1,5.2,2.9,7.1c1.9,1.9,4.4,2.9,7.1,2.9
	c2.6,0,5.2-1.1,7.1-2.9c1.9-1.9,2.9-4.4,2.9-7.1s-1.1-5.2-2.9-7.1C297.5,453.1,295,452,292.3,452z"/>
<path d="M370,228H50c-5.5,0-10,4.5-10,10v224c0,5.5,4.5,10,10,10h194.3c5.5,0,10-4.5,10-10s-4.5-10-10-10H60V248h300v204h-26.7
	c-5.5,0-10,4.5-10,10s4.5,10,10,10H370c5.5,0,10-4.5,10-10V238C380,232.5,375.5,228,370,228z"/>
<path d="M89,324h114.5c5.5,0,10-4.5,10-10s-4.5-10-10-10H89c-5.5,0-10,4.5-10,10S83.5,324,89,324z"/>
<path d="M89,376c-5.5,0-10,4.5-10,10s4.5,10,10,10h57.8c5.5,0,10-4.5,10-10s-4.5-10-10-10H89z"/>
<path d="M326.6,324c5.5,0,10-4.5,10-10s-4.5-10-10-10H280c-5.5,0-10,4.5-10,10s4.5,10,10,10H326.6z"/>
<path d="M189.2,396h137.5c5.5,0,10-4.5,10-10s-4.5-10-10-10H189.2c-5.5,0-10,4.5-10,10S183.6,396,189.2,396z"/>
<path d="M249.6,321.1c1.9-1.9,2.9-4.4,2.9-7.1s-1.1-5.2-2.9-7.1s-4.4-2.9-7.1-2.9s-5.2,1.1-7.1,2.9s-2.9,4.4-2.9,7.1
	s1.1,5.2,2.9,7.1s4.4,2.9,7.1,2.9S247.7,322.9,249.6,321.1z"/>
<path d="M472.2,172.9c-2.6,0-5.2,1.1-7.1,2.9c-1.9,1.9-2.9,4.4-2.9,7.1c0,2.6,1.1,5.2,2.9,7.1c1.9,1.9,4.4,2.9,7.1,2.9
	c2.6,0,5.2-1.1,7.1-2.9c1.9-1.9,2.9-4.4,2.9-7.1s-1.1-5.2-2.9-7.1C477.4,174,474.8,172.9,472.2,172.9z"/>
</svg>
