<?xml version="1.0" encoding="utf-8"?>
<!-- Generator: Adobe Illustrator 22.0.0, SVG Export Plug-In . SVG Version: 6.00 Build 0)  -->
<svg version="1.1" id="Layer_1" xmlns="http://www.w3.org/2000/svg" xmlns:xlink="http://www.w3.org/1999/xlink" x="0px" y="0px"
	 viewBox="0 0 478.1 517" style="enable-background:new 0 0 478.1 517;" xml:space="preserve">
<style type="text/css">
	.st0{fill:#FCCC22;stroke:#FCCC22;stroke-width:5;stroke-miterlimit:10;}
</style>
<path class="st0" d="M331.7,250.5c4.1,0,7.5-3.4,7.5-7.5v-18.1c0-4.1-3.4-7.5-7.5-7.5s-7.5,3.4-7.5,7.5V243
	C324.2,247.1,327.6,250.5,331.7,250.5z"/>
<path class="st0" d="M145.5,250.5c4.1,0,7.5-3.4,7.5-7.5v-18.1c0-4.1-3.4-7.5-7.5-7.5s-7.5,3.4-7.5,7.5V243
	C138,247.1,141.4,250.5,145.5,250.5z"/>
<path class="st0" d="M249.6,287c-2.7,3.1-6.7,4.8-11,4.8s-8.3-1.8-11-4.8c-2.7-3.1-7.5-3.4-10.6-0.7c-3.1,2.7-3.4,7.5-0.7,10.6
	c5.5,6.3,13.6,9.9,22.3,9.9c8.7,0,16.8-3.6,22.3-9.9c2.7-3.1,2.4-7.9-0.7-10.6C257.1,283.6,252.4,283.9,249.6,287z"/>
<path class="st0" d="M42.4,198c-22.5,3-39.9,22.2-39.9,45.5c0,25.8,22.8,47.2,48.5,45.8c11.4,32.7,31.4,62.1,58.4,84.9
	c17.7,15,37.8,26.7,59.4,34.7c-15.6,14.8-27.8,35.7-34.6,59.2c-3.7,12.6-5.5,25.8-5.5,38.9c0,4.1,3.4,7.5,7.5,7.5h205.9
	c4.1,0,7.5-3.4,7.5-7.5c0-13-2-27-5.7-39.5c-6.8-23.2-19-43.9-34.4-58.6c23.5-8.8,45.3-21.9,64.2-39c3.1-2.8,3.3-7.5,0.5-10.6
	s-7.5-3.3-10.6-0.5c-67.8,61.4-174.8,63-244.5,3.9c-26.7-22.6-46.1-52.2-56.1-85c-9.5-31.2-10.2-64.9-2-96.5h18.6
	c-2.2,10.6-3.4,21.5-3.4,32.4c0,6.5,0.4,13.1,1.2,19.6c4.6,36.4,35.8,63.9,72.6,63.9c14.8,0,29.1-4.4,41.4-12.9
	c10.8-7.4,27.9-16.2,47.7-16.2s36.8,8.8,47.7,16.2c12.3,8.4,26.6,12.9,41.4,12.9c36.8,0,68-27.5,72.6-63.9
	c2.2-17.3,1.4-34.9-2.2-51.9h18.6c8.1,31.2,7.4,64.5-1.7,95.4c0,0.1,0,0.1-0.1,0.2c-6.6,22.1-17.5,42.8-32.1,61
	c-2.6,3.2-2.1,7.9,1.1,10.5s7.9,2.1,10.5-1.1c14-17.5,24.9-37.1,32.2-58c0.9,0.1,1.8,0.1,2.7,0.1c25.3,0,45.8-20.6,45.8-45.8
	c0-23.3-17.4-42.5-39.9-45.4c-0.8-5.6-1.9-11.2-3.2-16.7h18c11.7,0,21.1-9.5,21.1-21.1v-16.5c0-11.7-9.5-21.1-21.1-21.1h-26.6
	c-1.5-8.4-4.7-24-11-41.2c-18.8-51.9-50.1-79.1-90.6-79.1c-32.2,0-46.6,5.7-58.1,10.4c-17.4,6.9-32.9,6.9-50.2,0
	c-11.5-4.7-25.9-10.4-58.1-10.4c-40.4,0-71.8,27.2-90.7,78.8c-6.3,17.2-9.6,32.8-11,41.2H27.6c-11.7,0-21.1,9.5-21.1,21.1v16.5
	c0,11.7,9.5,21.1,21.1,21.1h18C44.3,186.8,43.2,192.4,42.4,198z M168.3,432.1v30.6h-16.5C156,451.5,161.6,441,168.3,432.1z
	 M146.1,482.7c0.3-1.6,0.7-3.3,1.1-5h21.1v21.8h-24.4C144.2,493.9,145,488.2,146.1,482.7z M183.3,416c0.7-0.6,1.4-1.2,2.1-1.7
	c5.2,1.4,10.5,2.7,15.9,3.7v81.5h-18V416z M216.3,420.2c2.5,0.3,5,0.5,7.4,0.7c12.2,0.9,24.9,0.8,37.3-0.6v79.2h-44.7V420.2z
	 M294,499.5h-18v-81.3c5.7-1.1,11.3-2.3,16.9-3.9c0.4,0.3,0.7,0.6,1.1,0.9V499.5z M310,499.5v-21.8h21.1c0.4,1.7,0.8,3.3,1.1,5
	c1.1,5.6,1.8,11.2,2.2,16.8H310z M310,432.1c6.7,8.9,12.3,19.4,16.5,30.6H310V432.1z M437.5,213.6c13.3,3.4,23.2,15.5,23.2,29.9
	c0,16.4-12.8,29.8-28.9,30.8C436.9,254.6,438.8,234.1,437.5,213.6C437.5,213.6,437.5,213.6,437.5,213.6z M387,213.6
	c0,5.9-0.4,11.9-1.1,17.7c-3.6,28.9-28.4,50.7-57.7,50.7c-11.8,0-23.2-3.5-33-10.2c-12.6-8.6-32.5-18.9-56.1-18.9
	s-43.5,10.3-56.1,18.9c-9.8,6.7-21.2,10.2-33,10.2c-29.2,0-54-21.8-57.7-50.7c-2.1-16.7-1.2-33.7,2.6-50.1h288.2
	C385.8,191.9,387,202.7,387,213.6z M77.6,91.4h52.7c4.1,0,7.5-3.4,7.5-7.5s-3.4-7.5-7.5-7.5h-47c12.5-28.9,34.7-58.9,72.6-58.9
	c29.3,0,41.7,4.9,52.5,9.3c20.9,8.4,40.6,8.3,61.3,0c10.9-4.4,23.2-9.3,52.5-9.3c38,0,60.1,30,72.6,58.9H160.3
	c-4.1,0-7.5,3.4-7.5,7.5s3.4,7.5,7.5,7.5h240.4c4.2,12.5,6.8,23.8,8.1,31.1H69.5C70.8,115.2,73.3,103.9,77.6,91.4z M21.4,160.1
	v-16.5c0-3.4,2.8-6.1,6.1-6.1h423.2c3.4,0,6.1,2.8,6.1,6.1v16.5c0,3.4-2.8,6.1-6.1,6.1H27.6C24.2,166.3,21.4,163.5,21.4,160.1z
	 M46.4,274.2c-16.1-0.9-28.9-14.4-28.9-30.7c0-14.4,9.9-26.5,23.2-29.9v0.1c-1.3,20.2,0.6,40.6,5.6,60.3
	C46.4,274,46.4,274.1,46.4,274.2z"/>
</svg>
