<?xml version="1.0" encoding="utf-8"?>
<!-- Generator: Adobe Illustrator 22.0.0, SVG Export Plug-In . SVG Version: 6.00 Build 0)  -->
<svg version="1.1" id="Capa_1" xmlns="http://www.w3.org/2000/svg" xmlns:xlink="http://www.w3.org/1999/xlink" x="0px" y="0px"
	 viewBox="0 0 516 419.1" style="enable-background:new 0 0 516 419.1;" xml:space="preserve">
<style type="text/css">
	.st0{fill:#FFDA44;stroke:#FFDA44;stroke-width:4;stroke-miterlimit:10;}
</style>
<g>
	<g>
		<path class="st0" d="M237.3,92.1c-23.4,0-42.5,19.1-42.5,42.5v30c0,23.4,19.1,42.5,42.5,42.5s42.5-19.1,42.5-42.5v-30
			C279.8,111.1,260.7,92.1,237.3,92.1z M237.3,192.1c-14.3,0-26.1-11-27.4-25c7.4,6.3,17,10,27.4,10s20-3.8,27.4-10
			C263.4,181.1,251.6,192.1,237.3,192.1z M237.3,162.1c-15.2,0-27.5-12.3-27.5-27.5c0-15.2,12.3-27.5,27.5-27.5s27.5,12.3,27.5,27.5
			C264.8,149.8,252.4,162.1,237.3,162.1z"/>
	</g>
</g>
<g>
	<g>
		<path class="st0" d="M237.3,117.1c-4.1,0-7.5,3.4-7.5,7.5v20c0,4.1,3.4,7.5,7.5,7.5s7.5-3.4,7.5-7.5v-20
			C244.8,120.4,241.4,117.1,237.3,117.1z"/>
	</g>
</g>
<g>
	<g>
		<path class="st0" d="M372.3,2c-37.2,0-67.5,30.3-67.5,67.5v30l0,0c0,37.2,30.3,67.5,67.5,67.5s67.4-30.2,67.5-67.4v-0.1v-30
			C439.8,32.3,409.5,2,372.3,2z M372.3,152.1c-23.8,0-43.9-15.9-50.3-37.6c12.4,13.9,30.4,22.6,50.3,22.6c20,0,38-8.7,50.3-22.6
			C416.2,136.2,396.1,152.1,372.3,152.1z M372.3,122.1c-29,0-52.5-23.6-52.5-52.5s23.6-52.5,52.5-52.5s52.5,23.5,52.5,52.5
			C424.8,98.5,401.3,122.1,372.3,122.1z"/>
	</g>
</g>
<g>
	<g>
		<path class="st0" d="M372.3,42.1L372.3,42.1c-4.1,0-7.5,3.4-7.5,7.5v40c0,4.1,3.4,7.5,7.5,7.5l0,0c4.1,0,7.5-3.4,7.5-7.5v-40
			C379.8,45.4,376.5,42.1,372.3,42.1z"/>
	</g>
</g>
<g>
	<g>
		<path class="st0" d="M509.7,255.9c-10.3-17.8-33.1-24-51-13.9c-3.3,1.6-44.8,22-79,36.4c-3.8,1.6-5.6,6-4,9.8s6,5.6,9.8,4
			c35.9-15.1,79.5-36.7,80-36.9c0.1-0.1,0.3-0.1,0.4-0.2c10.7-6.2,24.5-2.5,30.7,8.2c7.2,12.4-4,26.1-9.5,31.6
			c-37.2,30-140.3,107.1-175,107.1c-38.4,0-146.1-22.8-172.5-28.5V251.1c52.2-7.7,79.9,2,137.9,22.2c17.6,6.1,37.6,13.1,61.9,20.9
			c3.6,1.6,13.7,7.2,9.8,20c-2.3,7.8-9.8,15.2-20.8,13.1c-14.8-2.8-101.7-14.6-105.4-15.1c-4.1-0.6-7.9,2.3-8.4,6.4s2.3,7.9,6.4,8.4
			c0.9,0.1,90.2,12.2,104.6,14.9c2.2,0.4,4.4,0.6,6.5,0.6c15.9,0,27.6-11.4,31.5-24.2c4-13.4-0.2-30.4-18.5-38.2H345c0,0,0,0-0.1,0
			s-0.2-0.1-0.3-0.1c-0.1,0-0.2-0.1-0.3-0.1c-24.3-7.8-44.3-14.7-61.9-20.9c-57.8-20.2-88.3-30.8-142.9-23.1v-6.3
			c0-4.1-3.4-7.5-7.5-7.5h-22.5v-7.5c0-4.1-3.4-7.5-7.5-7.5H9.5c-4.1,0-7.5,3.4-7.5,7.5v165c0,4.1,3.4,7.5,7.5,7.5s7.5-3.4,7.5-7.5
			V222.1h77.7v180h-15v-7.5c0-4.1-3.4-7.5-7.5-7.5s-7.5,3.4-7.5,7.5v7.5H9.5c-4.1,0-7.5,3.4-7.5,7.5s3.4,7.5,7.5,7.5h92.7
			c4.1,0,7.5-3.4,7.5-7.5v-7.9h22.5c4.1,0,7.5-3.4,7.5-7.5v-5.3c31.4,6.8,133.5,28.2,172.5,28.2c20.5,0,56.9-18.3,111.1-55.8
			c39.1-27.1,73.2-54.6,73.6-54.8c0.2-0.2,0.4-0.3,0.6-0.5C513.8,289.6,518.4,270.9,509.7,255.9z M124.7,379.5L124.7,379.5v7.2h-15
			l0,0V237.1h15V379.5L124.7,379.5z"/>
	</g>
</g>
</svg>
