<?xml version="1.0" encoding="utf-8"?>
<!-- Generator: Adobe Illustrator 22.0.0, SVG Export Plug-In . SVG Version: 6.00 Build 0)  -->
<svg version="1.1" id="Capa_1" xmlns="http://www.w3.org/2000/svg" xmlns:xlink="http://www.w3.org/1999/xlink" x="0px" y="0px"
	 viewBox="0 0 512 512" style="enable-background:new 0 0 512 512;" xml:space="preserve">
<style type="text/css">
	.st0{fill:#FCCC22;}
</style>
<g>
	<g>
		<path class="st0" d="M457.3,408c5.5-7.6,8.7-16.9,8.7-26.9V321c0-5.5-4.5-10-10-10h-44.7c-20.7,0-37.5,16.8-37.5,37.5v32.6
			c0,10,3.2,19.3,8.7,26.9c-6.8,1.1-13.4,3.3-19.5,6.5c-13.9-20.7-36.7-35-62.8-37.4c-0.1,0-0.2,0-0.3-0.1
			c9.4-10.5,15.1-24.2,15.1-39.3V256c0-5.5-4.5-10-10-10h-60.7c-26.1,0-47.3,21.2-47.3,47.3v44.3c0,15.1,5.7,28.9,15.1,39.3
			c-0.1,0-0.2,0-0.3,0.1c-26.2,2.4-48.9,16.7-62.8,37.4c-6.1-3.2-12.7-5.4-19.5-6.5c5.5-7.6,8.7-16.9,8.7-26.9V321
			c0-5.5-4.5-10-10-10H83.4c-20.7,0-37.5,16.8-37.5,37.5v32.6c0,10.1,3.2,19.4,8.7,26.9C23.7,413.1,0,440,0,472.4V502
			c0,5.5,4.5,10,10,10h492c5.5,0,10-4.5,10-10v-29.6C512,440,488.3,413.1,457.3,408z M65.9,348.5c0-9.6,7.8-17.5,17.5-17.5h34.7
			v12.2c0,6-4.9,10.8-10.8,10.8H65.9V348.5z M65.9,374h41.3c3.8,0,7.5-0.7,10.8-2v9.1c0,14.4-11.7,26.1-26.1,26.1
			s-26.1-11.7-26.1-26.1V374z M98.4,427.2l-6.4,6.4l-6.4-6.4H98.4z M134.6,461.7V492H20v-19.6c0-22.4,16.4-41.1,37.9-44.6l27.1,27.1
			c1.9,1.9,4.4,2.9,7.1,2.9s5.2-1.1,7.1-2.9l27.1-27.1c4.8,0.8,9.4,2.3,13.7,4.6C136.4,441.5,134.6,451.4,134.6,461.7z M256,376.7
			c-21.5,0-39-17.5-39-39v-13.2h59.8c6.6,0,12.9-1.7,18.3-4.7v17.9C295,359.2,277.5,376.7,256,376.7z M273.4,396.7L256,414.1
			l-17.4-17.4H273.4z M217,293.3L217,293.3c0-15.1,12.3-27.3,27.3-27.3H295v20.1c0,10.1-8.2,18.3-18.3,18.3H217L217,293.3L217,293.3
			z M357.4,492H338H174h-19.4v-20h65.1c5.5,0,10-4.5,10-10s-4.5-10-10-10h-64.4c4.3-28.4,27-50.9,55.6-54.7l38,38
			c2,2,4.5,2.9,7.1,2.9c2.6,0,5.1-1,7.1-2.9l38-38c31.8,4.3,56.3,31.5,56.3,64.4L357.4,492L357.4,492z M393.9,348.5
			c0-9.6,7.8-17.5,17.5-17.5h34.7v12.2c0,6-4.9,10.8-10.8,10.8h-41.3V348.5z M393.9,374h41.3c3.8,0,7.5-0.7,10.8-2v9.1
			c0,14.4-11.7,26.1-26.1,26.1s-26.1-11.7-26.1-26.1L393.9,374L393.9,374z M426.4,427.2l-6.4,6.4l-6.4-6.4H426.4z M377.4,492v-30.3
			c0-10.3-1.9-20.2-5.2-29.4c4.3-2.3,8.9-3.8,13.7-4.6l27.1,27.1c1.9,1.9,4.4,2.9,7.1,2.9s5.2-1.1,7.1-2.9l27.1-27.1
			c21.5,3.5,37.9,22.2,37.9,44.6V492H377.4z"/>
	</g>
</g>
<g>
	<g>
		<path class="st0" d="M305.3,65.3c-3.9-3.9-10.2-3.9-14.1,0l-49.1,49.1l-21.2-21.2c-3.9-3.9-10.2-3.9-14.1,0
			c-3.9,3.9-3.9,10.2,0,14.1l28.3,28.3c1.9,1.9,4.4,2.9,7.1,2.9s5.2-1.1,7.1-2.9l56.1-56.1C309.2,75.6,309.2,69.2,305.3,65.3z"/>
	</g>
</g>
<g>
	<g>
		<path class="st0" d="M296.9,8.7c-5-2.2-11,0-13.2,5.1s0,11,5.1,13.2c29,12.9,47.7,41.8,47.7,73.5c0,44.4-36.1,80.5-80.5,80.5
			s-80.5-36.1-80.5-80.5c0-31.6,18.6-60.4,47.4-73.4c5-2.3,7.3-8.2,5-13.2c-2.3-5-8.2-7.3-13.2-5c-35.9,16.2-59.2,52.2-59.2,91.6
			c0,55.4,45.1,100.5,100.5,100.5s100.5-45.1,100.5-100.5C356.5,60.9,333.1,24.8,296.9,8.7z"/>
	</g>
</g>
<g>
	<g>
		<path class="st0" d="M256.4,0H256c-5.5,0-10,4.5-10,10s4.5,10,10,10h0.3c0,0,0,0,0,0c5.5,0,10-4.4,10-10
			C266.3,4.5,261.9,0,256.4,0z"/>
	</g>
</g>
<g>
	<g>
		<path class="st0" d="M263.1,454.9c-1.9-1.9-4.4-2.9-7.1-2.9s-5.2,1.1-7.1,2.9s-2.9,4.4-2.9,7.1s1.1,5.2,2.9,7.1
			c1.9,1.9,4.4,2.9,7.1,2.9s5.2-1.1,7.1-2.9c1.9-1.9,2.9-4.4,2.9-7.1S264.9,456.8,263.1,454.9z"/>
	</g>
</g>
</svg>
