<?xml version="1.0" encoding="utf-8"?>
<!-- Generator: Adobe Illustrator 22.0.0, SVG Export Plug-In . SVG Version: 6.00 Build 0)  -->
<svg version="1.1" id="Capa_1" xmlns="http://www.w3.org/2000/svg" xmlns:xlink="http://www.w3.org/1999/xlink" x="0px" y="0px"
	 viewBox="0 0 470 538" style="enable-background:new 0 0 470 538;" xml:space="preserve">
<style type="text/css">
	.st0{fill:#FCCC22;}
</style>
<rect y="458" class="st0" width="460" height="80"/>
<g>
	<g>
		<path d="M220,380c-5.5,0-10,4.5-10,10s4.5,10,10,10s10-4.5,10-10S225.5,380,220,380z"/>
	</g>
</g>
<g>
	<g>
		<path d="M200,140c-5.5,0-10,4.5-10,10s4.5,10,10,10s10-4.5,10-10S205.5,140,200,140z"/>
	</g>
</g>
<g>
	<g>
		<path d="M469.3,286.3c-28.9-72.2-37-92.6-39.5-98.5C423.1,79.8,343.3,6.3,252.6,0.4C140.6-6.8,50,82.2,50,190
			c0,61.7,29.8,119.2,80,154.9c0,57,0,157.1,0,157.1c0,5.5,4.5,10,10,10h180c5.5,0,10-4.5,10-10v-77.3l43.8,10.3
			c0.1,0,0.2,0,0.3,0.1c8.8,1.8,17.9-0.5,24.9-6.2s11-14.2,11-23.2v-33.2l18.9-37.9c1.4-2.8,1.4-6.1,0-8.9L416.2,300H460
			c3.3,0,6.4-1.6,8.3-4.4C470.1,292.9,470.5,289.4,469.3,286.3z M400,280L400,280c-3.5,0-6.7,1.8-8.5,4.7c-1.8,2.9-2,6.6-0.4,9.7
			l17.8,35.5l-17.8,35.5c-0.7,1.4-1.1,2.9-1.1,4.5v35.6c0,3-1.3,5.8-3.7,7.7c-2.3,1.9-5.3,2.6-8.2,2.1c-0.1,0-116.5-27.3-116.7-27.3
			c-5.4-1.3-10.8,2.1-12,7.5s2.1,10.8,7.5,12l53,12.4v72H150c0-27.8,0-107,0-152.4c0-3.3-1.7-6.5-4.4-8.3
			C98.2,299.6,70,246.8,70,190c0-98,82.4-176,181.3-169.6c86.8,5.6,153.5,77.1,158.7,170c0.1,1.1,0.3,2.2,0.7,3.3
			c0.7,1.8,20.5,51.3,34.5,86.3H400L400,280z"/>
	</g>
</g>
<g>
	<g>
		<path d="M218.5,62.5c-32.1,7.5-58,33-65.8,65.1c-6.6,27.1-0.9,55.1,15.7,76.7c13.9,18.1,21.6,41.5,21.6,65.8c0,27.6,22.4,50,50,50
			s50-22.4,50-50c0-11.9,2-23.8,6.1-35.5c3.9-11.3,9.6-22.1,17-32.3C324.2,187,330,169,330,150.1C330,92.6,276.8,49,218.5,62.5z
			 M240,300c-13.3,0-24.3-8.7-28.3-20.1h56.6C264.2,291.5,253,300,240,300z M296.9,190.5c-8.5,11.8-15.2,24.4-19.7,37.5
			c-3.6,10.5-5.9,21.2-6.8,32h-60.8c-1.9-25.1-10.7-48.9-25.3-68c-13.1-17-17.4-38.2-12.1-59.7c6.1-24.8,26-44.6,50.9-50.3
			c45.5-10.6,86.9,23.2,86.9,68C310,164.6,305.5,178.6,296.9,190.5z"/>
	</g>
</g>
<g>
	<g>
		<path d="M240,100c-8.8,0-17.5,2.3-25,6.7c-4.8,2.8-6.4,8.9-3.6,13.7c2.8,4.8,8.9,6.4,13.7,3.6c4.5-2.6,9.7-4,15-4
			c16.5,0,30,13.5,30,30c0,5.5,4.5,10,10,10s10-4.5,10-10C290,122.4,267.6,100,240,100z"/>
	</g>
</g>
</svg>
