<?xml version="1.0" encoding="utf-8"?>
<!-- Generator: Adobe Illustrator 22.0.0, SVG Export Plug-In . SVG Version: 6.00 Build 0)  -->
<svg version="1.1" id="Capa_1" xmlns="http://www.w3.org/2000/svg" xmlns:xlink="http://www.w3.org/1999/xlink" x="0px" y="0px"
	 viewBox="0 0 434.1 512" style="enable-background:new 0 0 434.1 512;" xml:space="preserve">
<style type="text/css">
	.st0{fill:#FCCC22;}
</style>
<g>
	<g>
		<path class="st0" d="M324,0H30C13.5,0,0,13.5,0,30v102c0,5.5,4.5,10,10,10s10-4.5,10-10V30c0-5.5,4.5-10,10-10h294
			c5.5,0,10,4.5,10,10v372c0,5.5-4.5,10-10,10H30c-5.5,0-10-4.5-10-10V216.3c0-5.5-4.5-10-10-10s-10,4.5-10,10V402
			c0,16.5,13.5,30,30,30h294c16.5,0,30-13.5,30-30V30C354,13.5,340.5,0,324,0z"/>
	</g>
</g>
<g>
	<g>
		<path class="st0" d="M17.1,169.7c-1.9-1.9-4.4-2.9-7.1-2.9s-5.2,1.1-7.1,2.9c-1.9,1.9-2.9,4.4-2.9,7.1c0,2.6,1.1,5.2,2.9,7.1
			c1.9,1.9,4.4,2.9,7.1,2.9c2.6,0,5.2-1.1,7.1-2.9c1.9-1.9,2.9-4.4,2.9-7.1C20,174.1,18.9,171.6,17.1,169.7z"/>
	</g>
</g>
<g>
	<g>
		<path class="st0" d="M57.1,455c-1.9-1.9-4.4-2.9-7.1-2.9c-2.6,0-5.2,1.1-7.1,2.9c-1.9,1.9-2.9,4.4-2.9,7.1c0,2.6,1.1,5.2,2.9,7.1
			c1.9,1.9,4.4,2.9,7.1,2.9c2.6,0,5.2-1.1,7.1-2.9c1.9-1.9,2.9-4.4,2.9-7.1C60.1,459.4,59,456.9,57.1,455z"/>
	</g>
</g>
<g>
	<g>
		<path class="st0" d="M384.1,40.1c-5.5,0-10,4.5-10,10v392c0,5.5-4.5,10-10,10h-274c-5.5,0-10,4.5-10,10s4.5,10,10,10h274
			c16.5,0,30-13.5,30-30v-392C394.1,44.5,389.6,40.1,384.1,40.1z"/>
	</g>
</g>
<g>
	<g>
		<path class="st0" d="M424.1,80c-5.5,0-10,4.5-10,10v392c0,5.5-4.5,10-10,10h-314c-5.5,0-10,4.5-10,10s4.5,10,10,10h314
			c16.5,0,30-13.5,30-30V90C434.1,84.5,429.6,80,424.1,80z"/>
	</g>
</g>
<g>
	<g>
		<path class="st0" d="M162,74H66c-5.5,0-10,4.5-10,10v96c0,5.5,4.5,10,10,10h96c5.5,0,10-4.5,10-10V84C172,78.5,167.5,74,162,74z
			 M152,170H76V94h76V170z"/>
	</g>
</g>
<g>
	<g>
		<path class="st0" d="M129.8,235.4c-3.9-3.9-10.2-3.9-14.1,0L89.1,262l-12.4-12.4c-3.9-3.9-10.2-3.9-14.1,0
			c-3.9,3.9-3.9,10.2,0,14.1L82,283.2c1.9,1.9,4.4,2.9,7.1,2.9c2.7,0,5.2-1.1,7.1-2.9l33.7-33.7
			C133.7,245.6,133.7,239.3,129.8,235.4z"/>
	</g>
</g>
<g>
	<g>
		<path class="st0" d="M293.7,249H177c-5.5,0-10,4.5-10,10c0,5.5,4.5,10,10,10h116.7c5.5,0,10-4.5,10-10S299.2,249,293.7,249z"/>
	</g>
</g>
<g>
	<g>
		<path class="st0" d="M288,74h-70c-5.5,0-10,4.5-10,10s4.5,10,10,10h70c5.5,0,10-4.5,10-10S293.5,74,288,74z"/>
	</g>
</g>
<g>
	<g>
		<path class="st0" d="M288,122h-70c-5.5,0-10,4.5-10,10c0,5.5,4.5,10,10,10h70c5.5,0,10-4.5,10-10S293.5,122,288,122z"/>
	</g>
</g>
<g>
	<g>
		<path class="st0" d="M288,170h-70c-5.5,0-10,4.5-10,10s4.5,10,10,10h70c5.5,0,10-4.5,10-10S293.5,170,288,170z"/>
	</g>
</g>
<g>
	<g>
		<path class="st0" d="M129.8,311.8c-3.9-3.9-10.2-3.9-14.1,0l-26.6,26.6L76.7,326c-3.9-3.9-10.2-3.9-14.1,0
			c-3.9,3.9-3.9,10.2,0,14.1L82,359.6c1.9,1.9,4.4,2.9,7.1,2.9c2.7,0,5.2-1.1,7.1-2.9l33.7-33.7C133.7,322,133.7,315.7,129.8,311.8z
			"/>
	</g>
</g>
<g>
	<g>
		<path class="st0" d="M293.7,325H177c-5.5,0-10,4.5-10,10s4.5,10,10,10h116.7c5.5,0,10-4.5,10-10S299.2,325,293.7,325z"/>
	</g>
</g>
</svg>
