<?xml version="1.0" encoding="utf-8"?>
<!-- Generator: Adobe Illustrator 22.0.0, SVG Export Plug-In . SVG Version: 6.00 Build 0)  -->
<svg version="1.1" id="Capa_1" xmlns="http://www.w3.org/2000/svg" xmlns:xlink="http://www.w3.org/1999/xlink" x="0px" y="0px"
	 viewBox="0 0 512 512" style="enable-background:new 0 0 512 512;" xml:space="preserve">
<style type="text/css">
	.st0{fill:#FCCC22;}
</style>
<g>
	<g>
		<path class="st0" d="M509.1,194.9L496,181.9V76.4C496,34.3,461.7,0,419.6,0c-17.3,0-33.3,5.8-46.2,15.6
			c-56.6-27.8-127-18.2-174,28.8c-50.3,50.3-57.8,127.5-22.3,185.8l-57.3,57.3H95.6c-5.5,0-10,4.5-10,10v18.3H67.3
			c-5.5,0-10,4.5-10,10v18.3H38.9c-5.5,0-10,4.5-10,10v18.3H10.6c-2.7,0-5.2,1.1-7.1,2.9L2.9,376c-1.9,1.9-2.9,4.4-2.9,7.1V448
			c0,5.5,4.5,10,10,10h66.1c2.7,0,5.2-1.1,7.1-2.9l110.3-110.3c3.9-3.9,3.9-10.2,0-14.1c-3.9-3.9-10.2-3.9-14.1,0L72,438H20v-45.5
			h19c5.5,0,10-4.5,10-10v-18.3h18.3c5.5,0,10-4.5,10-10v-18.3h18.3c5.5,0,10-4.5,10-10v-18.3H124c2.7,0,5.2-1.1,7.1-2.9l57.8-57.8
			c3.3,4.1,6.9,8,10.6,11.8c27.1,27.1,62.5,42.6,100.5,44.2V470c0,23.2,18.8,42,42,42h128c23.2,0,42-18.8,42-42V202
			C512,199.3,510.9,196.8,509.1,194.9z M419.6,20c31.1,0,56.4,25.3,56.4,56.4v85.4l-18-18c-0.1-0.1-0.2-0.2-0.3-0.2
			c-1.9-36.1-16.6-71.7-44.1-99.2c-6.6-6.6-13.6-12.4-21-17.5C400.7,22.5,409.8,20,419.6,20z M363.2,104.8V82.7
			c2.6,1.2,5.1,2.8,7.2,4.9c4.6,4.6,7.1,10.7,7.1,17.1s-2.5,12.6-7.1,17.1c-9.5,9.5-24.8,9.5-34.3,0c-9.5-9.5-9.5-24.8,0-34.3
			c2.1-2.1,4.5-3.7,7.1-4.9v22c0,5.5,4.5,10,10,10S363.2,110.3,363.2,104.8z M306.6,282.9c-33.7,0-67.3-12.8-93-38.4
			c-51.3-51.3-51.3-134.7,0-185.9c24.8-24.8,57.8-38.5,93-38.5c18.1,0,35.7,3.7,51.9,10.6c-6.7,9-11.5,19.4-13.8,30.8
			c-8.3,1.6-16.3,5.7-22.7,12.1c-17.2,17.3-17.2,45.3,0,62.6c8.6,8.6,20,12.9,31.3,12.9c11.3,0,22.7-4.3,31.3-12.9
			c8.4-8.4,13-19.5,13-31.3c0-11.8-4.6-22.9-13-31.3c-5.6-5.6-12.4-9.4-19.5-11.3c2.1-8.2,6.1-15.8,11.5-22.1
			c8.3,5.2,16,11.4,23,18.4c24.8,24.8,38.5,57.8,38.5,93s-13.7,68.1-38.5,93C373.9,270.1,340.2,282.9,306.6,282.9z M492,470
			c0,12.1-9.9,22-22,22H342c-12.1,0-22-9.9-22-22V302.4c35.4-3.1,68.2-18.4,93.7-43.8c24.6-24.6,38.9-55.6,43-87.7l35.3,35.3V470z"
			/>
	</g>
</g>
<g>
	<g>
		<path class="st0" d="M255.6,100.6c3.9-3.9,3.9-10.2,0-14.1c-3.9-3.9-10.2-3.9-14.1,0c-35.9,35.9-35.9,94.2,0,130.1
			c2,2,4.5,2.9,7.1,2.9s5.1-1,7.1-2.9c3.9-3.9,3.9-10.2,0-14.1C227.6,174.3,227.6,128.6,255.6,100.6z"/>
	</g>
</g>
<g>
	<g>
		<path class="st0" d="M287.4,221c0,0-0.1,0-0.2,0c-5.3-1.5-10.8,1.7-12.3,7c-1.5,5.3,1.7,10.8,7,12.3c0.9,0.3,1.8,0.4,2.7,0.4
			c4.4,0,8.4-2.9,9.6-7.3C295.8,228.1,292.7,222.5,287.4,221z"/>
	</g>
</g>
<g>
	<g>
		<path class="st0" d="M448.5,438h-85c-5.5,0-10,4.5-10,10s4.5,10,10,10h85c5.5,0,10-4.5,10-10C458.5,442.5,454,438,448.5,438z"/>
	</g>
</g>
<g>
	<g>
		<path class="st0" d="M219.1,305c-1.9-1.9-4.4-2.9-7.1-2.9s-5.2,1.1-7.1,2.9s-2.9,4.4-2.9,7.1s1.1,5.2,2.9,7.1
			c1.9,1.9,4.4,2.9,7.1,2.9c2.6,0,5.2-1.1,7.1-2.9c1.9-1.9,2.9-4.4,2.9-7.1S221,306.8,219.1,305z"/>
	</g>
</g>
</svg>
