<?xml version="1.0" encoding="utf-8"?>
<!-- Generator: Adobe Illustrator 22.0.0, SVG Export Plug-In . SVG Version: 6.00 Build 0)  -->
<svg version="1.1" id="Capa_1" xmlns="http://www.w3.org/2000/svg" xmlns:xlink="http://www.w3.org/1999/xlink" x="0px" y="0px"
	 viewBox="0 0 512 511.8" style="enable-background:new 0 0 512 511.8;" xml:space="preserve">
<style type="text/css">
	.st0{fill:#FCCC22;}
</style>
<g>
	<g>
		<path class="st0" d="M396.6,113.1l36-84.7c2-4.6,0.2-10-4.1-12.5L410.8,5.4c-13.9-8.2-31.5-6.9-44,3.3l-2.7,2.2
			c-6.8,5.5-16.6,5.5-23.4,0l-0.1-0.1c-14.1-11.5-34.6-11.5-48.8,0c-6.8,5.6-16.6,5.6-23.4,0l-2.8-2.3
			c-12.4-10.1-30.1-11.5-43.9-3.4L203.5,16c-4.3,2.6-6.1,7.9-4.1,12.6l36.2,84.5c-26.2,9.5-48.6,27.6-63.3,51.4
			c-2.9,4.7-1.4,10.9,3.3,13.8c4.7,2.9,10.9,1.4,13.8-3.3c12.6-20.4,31.9-35.9,54.6-43.6h144c41.9,14.4,70,53.6,70,98v26.5
			c0,5.5,4.5,10,10,10s10-4.5,10-10v-26.5C478,177,445.4,130.9,396.6,113.1z M375.6,111.3h-119l-35.4-82.6l10.6-6.2
			c6.6-3.9,15.1-3.3,21.1,1.6l2.8,2.3c14.1,11.5,34.6,11.5,48.8,0c6.8-5.6,16.6-5.6,23.4,0l0.1,0.1c14.1,11.5,34.6,11.5,48.7,0
			l2.7-2.2c6-4.9,14.5-5.5,21.2-1.6l10.2,6L375.6,111.3z"/>
	</g>
</g>
<g>
	<g>
		<path class="st0" d="M475.1,286.6c-1.9-1.9-4.4-2.9-7.1-2.9s-5.2,1.1-7.1,2.9c-1.9,1.9-2.9,4.4-2.9,7.1c0,2.6,1.1,5.2,2.9,7.1
			c1.9,1.9,4.4,2.9,7.1,2.9s5.2-1.1,7.1-2.9c1.9-1.9,2.9-4.4,2.9-7.1C478,291,476.9,288.4,475.1,286.6z"/>
	</g>
</g>
<g>
	<g>
		<path class="st0" d="M153,446c-1.9-1.9-4.4-2.9-7.1-2.9s-5.2,1.1-7.1,2.9s-2.9,4.4-2.9,7.1s1.1,5.2,2.9,7.1
			c1.9,1.9,4.4,2.9,7.1,2.9s5.2-1.1,7.1-2.9s2.9-4.4,2.9-7.1S154.8,447.9,153,446z"/>
	</g>
</g>
<g>
	<g>
		<path class="st0" d="M512,417.8c0-11.1-4.8-21-12.3-28c7.6-7,12.3-16.9,12.3-28c0-21-17-38-38-38H366c-21,0-38,17-38,38
			c0,11.1,4.8,21,12.3,28c-7.6,7-12.3,16.9-12.3,28s4.8,21,12.3,28c-7.6,7-12.3,16.9-12.3,28c0,6.5,1.6,12.6,4.5,18h-40.7v-39.1
			c0-52.9-40.7-96.4-92.4-101.1c-1.4-0.4-2.9-0.5-4.3-0.3c-0.2,0-0.3,0-0.5,0c13-12.7,21.1-30.4,21.1-49.9v-99.6c0-5.5-4.5-10-10-10
			h-74.1c-30.6,0-55.5,24.9-55.5,55.5v54.1c0,19.5,8.1,37.2,21.1,49.9c-0.2,0-0.3,0-0.5,0c-1.4-0.2-2.9-0.1-4.3,0.3
			C40.7,356.3,0,399.9,0,452.7v49.1c0,5.5,4.5,10,10,10h154h117.8H366h102h6c21,0,38-17,38-38c0-11.1-4.8-21-12.3-28
			C507.2,438.9,512,428.9,512,417.8z M96.1,261.4v-14c0-19.6,15.9-35.5,35.5-35.5h64.1v26.8c0,13.5-11,24.5-24.5,24.5H96.1V261.4z
			 M96.1,301.4v-18.3h75.1c9.1,0,17.5-2.7,24.5-7.4v25.7c0,27.5-22.3,49.8-49.8,49.8C118.5,351.2,96.1,328.9,96.1,301.4z
			 M172.5,371.2l-26.6,26.6l-26.6-26.6H172.5z M271.8,491.9H164v0H20v-28.8h81.6c5.5,0,10-4.5,10-10s-4.5-10-10-10h-81
			c4.4-37.2,33.9-66.7,71.1-71.2l47.2,47.2c2,2,4.5,2.9,7.1,2.9s5.1-1,7.1-2.9l47.2-47.2c40.3,4.9,71.7,39.3,71.7,80.9V491.9z
			 M474,491.8h-6H366c-9.9,0-18-8.1-18-18s8.1-18,18-18h108c9.9,0,18,8.1,18,18S483.9,491.8,474,491.8z M474,435.8H366
			c-9.9,0-18-8.1-18-18s8.1-18,18-18h108c9.9,0,18,8.1,18,18S483.9,435.8,474,435.8z M474,379.8H366c-9.9,0-18-8.1-18-18
			s8.1-18,18-18h108c9.9,0,18,8.1,18,18S483.9,379.8,474,379.8z"/>
	</g>
</g>
<g>
	<g>
		<path class="st0" d="M374,227.9c-8,0-14.5-5.5-14.5-12.3s6.5-12.3,14.5-12.3s14.5,5.5,14.5,12.3c0,5.5,4.5,10,10,10s10-4.5,10-10
			c0-14.5-10.3-26.9-24.5-30.9v-1.5c0-5.5-4.5-10-10-10s-10,4.5-10,10v1.5c-14.2,4-24.5,16.3-24.5,30.9c0,17.8,15.5,32.3,34.5,32.3
			c8,0,14.5,5.5,14.5,12.3c0,6.8-6.5,12.3-14.5,12.3s-14.5-5.5-14.5-12.3c0-5.5-4.5-10-10-10s-10,4.5-10,10
			c0,14.5,10.3,26.9,24.5,30.9v0.6c0,5.5,4.5,10,10,10s10-4.5,10-10V291c14.2-4,24.5-16.3,24.5-30.9
			C408.5,242.4,393,227.9,374,227.9z"/>
	</g>
</g>
</svg>
