<?xml version="1.0" encoding="utf-8"?>
<!-- Generator: Adobe Illustrator 22.0.0, SVG Export Plug-In . SVG Version: 6.00 Build 0)  -->
<svg version="1.1" id="Capa_1" xmlns="http://www.w3.org/2000/svg" xmlns:xlink="http://www.w3.org/1999/xlink" x="0px" y="0px"
	 viewBox="0 0 512 535" style="enable-background:new 0 0 512 535;" xml:space="preserve">
<style type="text/css">
	.st0{fill:#FCCC22;}
</style>
<rect x="26" y="455" class="st0" width="460" height="80"/>
<g>
	<g>
		<path d="M356,146.1c-5.5,0-10,4.5-10,10s4.5,10,10,10s10-4.5,10-10S361.5,146.1,356,146.1z"/>
	</g>
</g>
<g>
	<g>
		<path d="M156,346c-5.5,0-10,4.5-10,10s4.5,10,10,10s10-4.5,10-10S161.5,346,156,346z"/>
	</g>
</g>
<g>
	<g>
		<path d="M508.5,214.4c-0.8-4.8-5-8.3-9.9-8.3H460c-5.1-20.8-13.3-40.5-24.4-58.8l29.1-29.1c3.5-3.5,3.9-8.9,1.1-12.9
			c-16.3-22.8-36.1-42.6-58.9-58.9c-4-2.8-9.4-2.4-12.9,1.1l-29.1,29.1C346.5,65.4,326.8,57.1,306,52V13.3c0-4.9-3.5-9.1-8.3-9.9
			c-27.3-4.6-56-4.6-83.3,0c-4.8,0.8-8.3,5-8.3,9.9V52c-20.8,5.1-40.5,13.3-58.8,24.4l-29.1-29.1c-3.5-3.5-8.9-3.9-12.9-1.1
			c-22.8,16.3-42.6,36.1-58.9,58.9c-2.8,4-2.4,9.4,1.1,12.9l29.1,29.1c-11.3,18.4-19.5,38.1-24.6,58.9H13.3c-4.9,0-9.1,3.5-9.9,8.3
			C1.2,228.1,0,242.1,0,256c0,14,1.2,28,3.5,41.7c0.8,4.8,5,8.3,9.9,8.3H52c5.1,20.8,13.3,40.5,24.4,58.8l-29.1,29.1
			c-3.5,3.5-3.9,8.9-1.1,12.9c16.3,22.8,36.1,42.6,58.9,58.9c4,2.8,9.4,2.4,12.9-1.1l29.1-29.1c18.3,11.2,38.1,19.4,58.8,24.4v38.7
			c0,4.9,3.5,9.1,8.3,9.9C228,510.8,242,512,256,512s28-1.2,41.7-3.5c4.8-0.8,8.3-5,8.3-9.9V460c20.8-5.1,40.5-13.3,58.8-24.4
			l29.1,29.1c3.5,3.5,8.9,3.9,12.9,1.1c22.8-16.3,42.6-36.1,58.9-58.9c2.8-4,2.4-9.4-1.1-12.9L435.5,365
			c11.2-18.3,19.4-38.1,24.4-58.8h38.7c4.9,0,9.1-3.5,9.9-8.3C510.8,284,512,270,512,256C512,242.1,510.8,228.1,508.5,214.4z
			 M490.1,286H452c-4.8,0-8.9,3.3-9.8,8c-4.9,23.9-14.2,46.3-27.7,66.7c-2.6,4-2.1,9.2,1.3,12.6l28.7,28.7
			c-12.3,15.9-26.5,30.2-42.4,42.4l-28.7-28.7c-3.4-3.4-8.6-3.9-12.6-1.3c-20.4,13.5-42.8,22.9-66.7,27.7c-4.7,0.9-8,5-8,9.8V490
			c-19.8,2.6-40.2,2.6-60,0v-38c0-4.8-3.3-8.9-8-9.8c-23.9-4.9-46.3-14.2-66.7-27.7c-4-2.6-9.2-2.1-12.6,1.3L110,444.4
			c-15.9-12.3-30.2-26.5-42.4-42.4l28.7-28.7c3.4-3.4,3.9-8.6,1.3-12.6C84,340.3,74.7,317.9,69.8,294c-0.9-4.7-5-8-9.8-8H21.9
			c-1.3-9.9-1.9-20-1.9-30c0-10,0.7-20.1,1.9-30H60c4.8,0,8.9-3.3,9.8-8c4.9-23.9,14.2-46.3,27.7-66.7c2.6-4,2.1-9.2-1.3-12.6
			l-28.6-28.7C79.9,94.2,94.1,80,110,67.7l28.7,28.7c3.4,3.4,8.6,3.9,12.6,1.3c20.4-13.6,42.8-22.9,66.7-27.8c4.7-0.9,8-5,8-9.8
			V21.9c19.8-2.6,40.2-2.6,60,0V60c0,4.8,3.3,8.9,8,9.8c23.9,4.9,46.3,14.2,66.7,27.7c4,2.6,9.2,2.1,12.6-1.3L402,67.7
			c15.9,12.3,30.2,26.5,42.4,42.4l-28.7,28.7c-3.4,3.4-3.9,8.6-1.3,12.6c13.5,20.4,22.9,42.9,27.7,66.7c0.9,4.7,5,8,9.8,8H490
			c1.3,9.9,1.9,20,1.9,30C492,266,491.3,276.1,490.1,286z"/>
	</g>
</g>
<g>
	<g>
		<path d="M328,124.5c-21.9-12-46.8-18.4-72-18.4c-82.7,0-150,67.3-150,150c0,25.1,6.4,50,18.4,72c2.7,4.9,8.8,6.6,13.6,4
			c4.8-2.7,6.6-8.7,4-13.6c-10.4-19-15.9-40.6-15.9-62.3c0-71.7,58.3-130,130-130c21.8,0,43.3,5.5,62.3,15.9
			c4.8,2.7,10.9,0.9,13.6-4C334.6,133.2,332.8,127.2,328,124.5z"/>
	</g>
</g>
<g>
	<g>
		<path d="M387.6,184.1c-2.7-4.8-8.7-6.6-13.6-4c-4.8,2.7-6.6,8.7-4,13.6c10.4,19,15.9,40.6,15.9,62.3c0,71.7-58.3,130-130,130
			c-21.8,0-43.3-5.5-62.3-15.9c-4.8-2.7-10.9-0.9-13.6,4c-2.7,4.8-0.9,10.9,4,13.6c21.9,12,46.8,18.4,72,18.4
			c82.7,0,150-67.3,150-150C406,230.9,399.6,206.1,387.6,184.1z"/>
	</g>
</g>
<g>
	<g>
		<path d="M256,146.1c-60.7,0-110,49.3-110,110s49.3,110,110,110s110-49.3,110-110S316.7,146.1,256,146.1z M256,346
			c-49.6,0-90-40.4-90-90s40.4-90,90-90s90,40.4,90,90S305.6,346,256,346z"/>
	</g>
</g>
</svg>
