<?xml version="1.0" encoding="utf-8"?>
<!-- Generator: Adobe Illustrator 22.0.0, SVG Export Plug-In . SVG Version: 6.00 Build 0)  -->
<svg version="1.1" id="Capa_1" xmlns="http://www.w3.org/2000/svg" xmlns:xlink="http://www.w3.org/1999/xlink" x="0px" y="0px"
	 viewBox="0 0 460 542" style="enable-background:new 0 0 460 542;" xml:space="preserve">
<style type="text/css">
	.st0{fill:#FCCC22;}
</style>
<rect y="462" class="st0" width="460" height="80"/>
<g>
	<g>
		<path d="M340,396c-5.5,0-10,4.5-10,10s4.5,10,10,10s10-4.5,10-10S345.5,396,340,396z"/>
	</g>
</g>
<g>
	<g>
		<path d="M364.6,363.7l-47.5-15.8L300,313.7c15.4-15.6,26-36.3,29.6-57.9l2.1-12.8H350c16.5,0,30-13.5,30-30v-63
			C380,67.3,312.7,0,230,0C147.1,0,80,67.1,80,150v63c0,13,8.4,24.2,20,28.3V253c0,16.5,13.5,30,30,30h8.8c4.3,9.4,9.9,18.1,16.8,26
			c1.4,1.6,2.9,3.2,4.4,4.7l-17.1,34.1l-47.5,15.8C40.1,382.1,0,440.3,0,502c0,5.5,4.5,10,10,10h440c5.5,0,10-4.5,10-10
			C460,440.3,419.9,382.1,364.6,363.7z M360,213c0,5.5-4.5,10-10,10h-15.3c2.5-19.7,4.2-40.6,4.9-61.3c0-0.6,0-1.1,0.1-1.7H360V213z
			 M110,223c-5.5,0-10-4.5-10-10v-53h20.3c0,1,0.1,2.1,0.1,3.1v0.1l0,0c0.7,20.1,2.4,40.5,4.9,59.7L110,223L110,223z M130,263
			c-5.5,0-10-4.5-10-10v-10h8.2l2.1,12.8c0.4,2.4,0.9,4.8,1.5,7.2H130z M120,140h-19.6c5.1-67,61-120,129.6-120
			c68.3,0,124.5,53,129.6,120H340c-0.7-55.2-45.7-100-101-100h-17.9C165.7,40,120.7,84.8,120,140z M221.1,60H239
			c44.8,0,81.1,36.7,81,81.4c0,3.1,0,5.9-0.1,8.4v0.1l-12.5-1.8c-34-4.9-66.1-20.9-90.3-45.2c-1.9-1.9-4.4-2.9-7.1-2.9
			c-26.9,0-52.6,12.2-69.6,32.9C144.6,92.2,179.1,60,221.1,60z M152.5,263c-5-16.7-10.7-65.7-12-97.1L154,148
			c12.4-16.5,31.6-26.7,52-27.9c26.9,25.6,61.7,42.5,98.5,47.8l14.7,2.1c-1,20.9-3,41.8-5.9,61.1l0,0c-0.9,6.2-1.6,10.2-3.5,21.3
			c-5.3,31.8-29,60.5-60.3,68.3c-12.9,3.2-26.4,3.2-39.3,0c-19.5-4.9-37.5-18.4-49-37.8h20.4c4.1,11.6,15.2,20,28.3,20h20
			c16.6,0,30-13.4,30-30c0-16.5-13.5-30-30-30h-20c-13.3,0-24.3,8.6-28.3,20L152.5,263L152.5,263z M209.2,341
			c6.9,1.4,13.9,2.2,20.8,2.2c5.5,0,10.9-0.5,16.4-1.3l-17.7,18.7L209.2,341z M214.9,375.1l-31.7,33.5
			c-8.7-16.7-16.2-34.1-22.4-51.9l11.9-23.8L214.9,375.1z M285.6,329.5l13.6,27.2c-6.2,17.8-13.7,35.2-22.4,51.9l-33.9-33.9
			L285.6,329.5z M200,273c0-5.5,4.5-10,10-10h20c5.5,0,10,4.5,10,10s-4.5,10-10,10h-20C204.5,283,200,278.5,200,273z M20.4,492
			c4-49.5,36.9-94.6,81.3-109.4l42.1-14c7.7,21.3,17.3,42.1,28.5,61.7c0,0,0,0.1,0.1,0.1l0,0c8.2,14.4,17.4,28.5,27.4,41.8L212,492
			H20.4z M230,483.1l-13.6-21.8c-0.2-0.2-0.3-0.5-0.5-0.7c-8.1-10.8-15.7-22.1-22.5-33.7l35.7-37.7l37.6,37.6
			c-6.9,11.6-14.5,23-22.6,33.8C243.6,461.3,244.3,460.2,230,483.1z M248,492l12.3-19.7c10-13.4,19.3-27.6,27.6-42.1
			c0-0.1,0.1-0.2,0.1-0.3l0,0c11.1-19.5,20.5-40,28.2-61.2l42.1,14c44.4,14.8,77.3,59.8,81.3,109.4L248,492L248,492z"/>
	</g>
</g>
<g>
	<g>
		<path d="M409.5,451.5c-6.7-13.4-16.5-25.3-28.3-34.4c-4.4-3.4-10.7-2.5-14,1.8c-3.4,4.4-2.5,10.7,1.8,14
			c9.5,7.3,17.3,16.8,22.6,27.5c2.5,4.9,8.5,6.9,13.4,4.5C410,462.5,412,456.5,409.5,451.5z"/>
	</g>
</g>
</svg>
