<?xml version="1.0" encoding="utf-8"?>
<!-- Generator: Adobe Illustrator 22.0.0, SVG Export Plug-In . SVG Version: 6.00 Build 0)  -->
<svg version="1.1" id="Capa_1" xmlns="http://www.w3.org/2000/svg" xmlns:xlink="http://www.w3.org/1999/xlink" x="0px" y="0px"
	 viewBox="0 0 359.8 454" style="enable-background:new 0 0 359.8 454;" xml:space="preserve">
<style type="text/css">
	.st0{fill:#FCCC22;}
</style>
<g>
	<path class="st0" d="M179.8,454h151.7c15.6,0,28.3-12.7,28.3-28.3V58V28.3C359.7,12.7,347.1,0,331.5,0H179.8h-50.4v9.4
		c0.1,1,0.2,2,0.2,3V74v15.8c0,22-17.9,39.8-39.8,39.8H74H12.3c-0.8,0-1.7-0.1-2.5-0.1H0v296.2C0,441.3,12.7,454,28.3,454h31H179.8
		L179.8,454z M185.5,357.9H86.6c-7.4,0-13.4-6-13.4-13.4s6-13.4,13.4-13.4h98.9c7.4,0,13.4,6,13.4,13.4
		C199,351.9,192.9,357.9,185.5,357.9z M284.5,289.7H86.7c-7.4,0-13.4-6-13.4-13.4s6-13.4,13.4-13.4h197.8c7.4,0,13.4,6,13.4,13.4
		C297.8,283.7,291.8,289.7,284.5,289.7z M86.7,190.5h197.8c7.4,0,13.4,6,13.4,13.4s-6,13.4-13.4,13.4H86.7c-7.4,0-13.4-6-13.4-13.4
		C73.3,196.5,79.3,190.5,86.7,190.5z"/>
	<path class="st0" d="M12.3,113.6h77.5c0.1,0,0.2,0,0.2,0c12.9-0.1,23.4-10.6,23.5-23.5c0-0.1,0-0.2,0-0.2V12.4
		c0-7.2-5.9-11.9-12-11.9c-2.9,0-5.9,1.1-8.3,3.5L3.8,93.3C-3.7,100.8,1.6,113.6,12.3,113.6z"/>
</g>
</svg>
