<?xml version="1.0" encoding="utf-8"?>
<!-- Generator: Adobe Illustrator 22.0.0, SVG Export Plug-In . SVG Version: 6.00 Build 0)  -->
<svg version="1.1" id="Layer_1" xmlns="http://www.w3.org/2000/svg" xmlns:xlink="http://www.w3.org/1999/xlink" x="0px" y="0px"
	 viewBox="0 0 512 512" style="enable-background:new 0 0 512 512;" xml:space="preserve">
<style type="text/css">
	.st0{fill:#FCCC22;}
</style>
<g>
	<g>
		<path class="st0" d="M256,0C114.6,0,0,114.6,0,256s114.6,256,256,256s256-114.6,256-256S397.4,0,256,0z M366.7,304.7H258.1
			c-0.4,0-0.7-0.1-1.1-0.1c-0.4,0-0.7,0.1-1.1,0.1c-9.8,0-17.7-7.9-17.7-17.7V106.2c0-9.8,7.9-17.7,17.7-17.7s17.7,7.9,17.7,17.7
			v163h93c9.8,0,17.7,7.9,17.7,17.7C384.4,296.8,376.4,304.7,366.7,304.7z"/>
	</g>
</g>
</svg>
