<?xml version="1.0" encoding="utf-8"?>
<!-- Generator: Adobe Illustrator 22.0.0, SVG Export Plug-In . SVG Version: 6.00 Build 0)  -->
<svg version="1.1" id="Layer_1" xmlns="http://www.w3.org/2000/svg" xmlns:xlink="http://www.w3.org/1999/xlink" x="0px" y="0px"
	 viewBox="0 0 460 547" style="enable-background:new 0 0 460 547;" xml:space="preserve">
<style type="text/css">
	.st0{fill:#FCCC22;}
</style>
<rect y="467" class="st0" width="460" height="80"/>
<path d="M336,326c5.5,0,10-4.5,10-10s-4.5-10-10-10s-10,4.5-10,10S330.5,326,336,326z"/>
<path d="M67.9,320.2c6.2,26.3,16,51.7,29.1,75.3c13.1,23.6,29.5,45.3,48.6,64.4l0.3,0.3V502c0,5.5,4.5,10,10,10h180
	c5.5,0,10-4.5,10-10v-43c26-40,40-86.9,40-135.1V246c0-22.1-17.9-40-40-40c-8.2,0-15.9,2.5-22.3,6.8c-5.5-15.6-20.3-26.8-37.7-26.8
	c-8.2,0-15.9,2.5-22.3,6.8c-5.5-15.6-20.3-26.8-37.7-26.8c-7.1,0-14,1.9-20,5.4V80c0-22.1-17.9-40-40-40s-40,17.9-40,40v144
	l-27.3,18.2C73.3,259.1,60.9,290.5,67.9,320.2z M109.8,258.8L126,248v68c0,5.5,4.5,10,10,10s10-4.5,10-10c0-7.3,0-230,0-236
	c0-11,9-20,20-20s20,9,20,20v196c0,5.5,4.5,10,10,10s10-4.5,10-10v-70c0-11,9-20,20-20s20,9,20,20v70c0,5.5,4.5,10,10,10
	s10-4.5,10-10v-50c0-11,9-20,20-20s20,9,20,20v50c0,5.5,4.5,10,10,10s10-4.5,10-10v-30c0-11,9-20,20-20s20,9,20,20v77.9
	c0,44.8-13.2,88.9-38.3,126.6c-1.1,1.6-1.7,3.6-1.7,5.5v36H166v-36c0-2.7-1.1-5.2-2.9-7.1c-2.1-2.4-27.1-24.7-48.6-63.2
	c-12.2-22-21.4-45.6-27.2-70.1C82.3,294,91.3,271.2,109.8,258.8z"/>
<path d="M297.2,442.1c4.6,3.1,10.8,1.8,13.9-2.8c16.6-24.9,27.4-52.4,32.2-81.8c0.9-5.4-2.8-10.6-8.3-11.5s-10.6,2.8-11.5,8.3
	c-4.3,26.6-14.1,51.5-29.1,74C291.4,432.9,292.6,439.1,297.2,442.1z"/>
<path d="M96,90c5.5,0,10-4.5,10-10c0-33.1,26.9-60,60-60s60,26.9,60,60c0,5.5,4.5,10,10,10s10-4.5,10-10c0-44.1-35.9-80-80-80
	S86,35.9,86,80C86,85.5,90.5,90,96,90z"/>
</svg>
