<?xml version="1.0" encoding="utf-8"?>
<!-- Generator: Adobe Illustrator 22.0.0, SVG Export Plug-In . SVG Version: 6.00 Build 0)  -->
<svg version="1.1" id="Layer_1" xmlns="http://www.w3.org/2000/svg" xmlns:xlink="http://www.w3.org/1999/xlink" x="0px" y="0px"
	 viewBox="0 0 426 225.3" style="enable-background:new 0 0 426 225.3;" xml:space="preserve">
<style type="text/css">
	.st0{fill:#FFFFFF;}
	.st1{fill-rule:evenodd;clip-rule:evenodd;fill:#DD7E4A;}
</style>
<g>
	<path class="st0" d="M3.5,149c1.2-0.6,3-1.2,5.1-1.2c3.4,0,5,1.7,4.4,3.9c-0.5,1.9-2.1,3.2-3.9,3.6l0,0c1.9,0.3,3.2,1.6,2.7,3.7
		c-0.8,3.4-4.6,4.6-7.4,4.6c-1.6,0-3.2-0.3-4.4-1.1l1.4-2.7c0.6,0.4,2.1,0.9,3.5,0.9c1.8,0,3-0.7,3.3-2c0.4-1.7-1.3-2.1-2.7-2.1H4
		l0.6-2.6H6c1.6,0,2.9-0.7,3.2-1.9c0.2-1-0.4-1.7-1.9-1.7c-1.2,0-2.6,0.5-3.6,0.9L3.5,149z"/>
	<path class="st0" d="M17.5,159.5l-2,3.9h-3.6l8.3-15.4h4.6l1.2,15.4h-3.7l-0.3-3.9H17.5z M22,156.9l-0.2-3.3
		c-0.1-0.9-0.1-2.1-0.1-3h0c-0.4,0.9-0.9,2.1-1.4,3l-1.7,3.3H22z"/>
	<path class="st0" d="M31.5,148.2c1-0.2,2.8-0.3,4.6-0.3c2.1,0,3.4,0.2,4.3,0.9c0.9,0.6,1.5,1.6,1.1,3c-0.3,1.4-1.4,2.6-3.3,3.3l0,0
		c1.6,0.5,2.6,1.8,2.2,3.8c-0.3,1.4-1.2,2.5-2.4,3.3c-1.3,0.9-3.3,1.4-6.4,1.4c-1.7,0-3-0.1-3.7-0.2L31.5,148.2z M32,160.9
		c0.3,0,0.7,0,1.3,0c1.6,0,3.1-0.6,3.5-2.2c0.4-1.6-0.9-2.2-2.6-2.2H33L32,160.9z M33.6,154.1h1.1c1.8,0,3-0.8,3.3-1.9
		c0.3-1.2-0.5-1.8-2-1.8c-0.8,0-1.2,0-1.5,0.1L33.6,154.1z"/>
	<path class="st0" d="M57.6,155.6c-1.2,5-5,8.1-9.5,8.1c-4.6,0-6.4-3.4-5.4-7.8c1.1-4.6,4.8-8.1,9.4-8.1
		C56.8,147.8,58.6,151.3,57.6,155.6z M46.4,155.8c-0.7,3,0.2,5.1,2.5,5.1c2.3,0,4.2-2.2,4.9-5.2c0.6-2.8-0.1-5.1-2.5-5.1
		C49,150.5,47.1,152.8,46.4,155.8z"/>
	<path class="st0" d="M73.2,148l-3,12.6l1.5,0.1l-1.7,6.5h-2.6l0.7-3.9h-9l-1.1,3.9h-2.6l1.4-6.5l1.3-0.1c0.9-1.1,1.6-2.2,2.3-3.4
		c0.8-1.6,1.4-3.2,1.8-5.1l1-4.1H73.2z M65.3,152.9c-0.4,1.8-1.1,3.5-1.9,5.1c-0.5,0.9-1.1,1.9-1.7,2.6h5.1l2.3-9.7h-3.4L65.3,152.9
		z"/>
	<path class="st0" d="M93.8,148l-3.6,15.4h-3.5l2.9-12.5h-5.5l-2.9,12.5h-3.5l3.6-15.4H93.8z"/>
	<path class="st0" d="M100,148l-1.1,4.6c-0.6,2.5-1.2,4.9-1.8,7h0.1c1.2-1.8,2.7-3.8,4-5.5l4.7-6h3.6l-3.6,15.4h-3.2l1.1-4.5
		c0.6-2.4,1.1-4.5,1.8-6.5h-0.1c-1.1,1.8-2.6,3.9-3.9,5.5l-4.4,5.5h-4l3.6-15.4H100z"/>
	<path class="st0" d="M115.9,148l-2.9,12.5h3.8l2.9-12.5h3.4l-2.9,12.5h3.8l2.9-12.5h3.4l-3,12.6l1.5,0.1l-1.7,6.5h-2.6l0.7-3.9
		h-16.4l3.6-15.4H115.9z"/>
	<path class="st0" d="M140.9,156.9h-5.7l-0.9,3.7h6.3l-0.7,2.9h-9.8l3.6-15.4h9.5l-0.7,2.9h-6l-0.8,3.2h5.7L140.9,156.9z"/>
	<path class="st0" d="M146,148.2c1-0.2,2.8-0.3,4.6-0.3c2.1,0,3.4,0.2,4.3,0.9c0.9,0.6,1.5,1.6,1.1,3c-0.3,1.4-1.4,2.6-3.3,3.3l0,0
		c1.6,0.5,2.6,1.8,2.2,3.8c-0.3,1.4-1.2,2.5-2.4,3.3c-1.3,0.9-3.3,1.4-6.4,1.4c-1.7,0-3-0.1-3.7-0.2L146,148.2z M146.4,160.9
		c0.3,0,0.7,0,1.3,0c1.6,0,3.1-0.6,3.5-2.2c0.4-1.6-0.9-2.2-2.6-2.2h-1.2L146.4,160.9z M148,154.1h1.1c1.8,0,3-0.8,3.3-1.9
		c0.3-1.2-0.5-1.8-2-1.8c-0.8,0-1.2,0-1.5,0.1L148,154.1z"/>
	<path class="st0" d="M172,155.6c-1.2,5-5,8.1-9.5,8.1c-4.6,0-6.4-3.4-5.4-7.8c1.1-4.6,4.8-8.1,9.4-8.1
		C171.3,147.8,173,151.3,172,155.6z M160.8,155.8c-0.7,3,0.2,5.1,2.5,5.1c2.3,0,4.2-2.2,4.9-5.2c0.6-2.8-0.1-5.1-2.5-5.1
		C163.4,150.5,161.5,152.8,160.8,155.8z"/>
	<path class="st0" d="M185.4,148l-0.7,2.9h-5.8l-2.9,12.5h-3.5l3.6-15.4H185.4z"/>
	<path class="st0" d="M198.8,155.6c-1.2,5-5,8.1-9.5,8.1c-4.6,0-6.4-3.4-5.4-7.8c1.1-4.6,4.8-8.1,9.4-8.1
		C198,147.8,199.8,151.3,198.8,155.6z M187.6,155.8c-0.7,3,0.2,5.1,2.5,5.1c2.3,0,4.2-2.2,4.9-5.2c0.6-2.8-0.1-5.1-2.5-5.1
		C190.2,150.5,188.3,152.8,187.6,155.8z"/>
	<path class="st0" d="M219.7,155.6c-1.2,5-5,8.1-9.5,8.1c-4.6,0-6.4-3.4-5.4-7.8c1.1-4.6,4.8-8.1,9.4-8.1
		C219,147.8,220.7,151.3,219.7,155.6z M208.6,155.8c-0.7,3,0.2,5.1,2.5,5.1c2.3,0,4.2-2.2,4.9-5.2c0.7-2.8-0.1-5.1-2.5-5.1
		C211.2,150.5,209.3,152.8,208.6,155.8z"/>
	<path class="st0" d="M234,148l-0.7,2.8h-6.8l-0.6,2.6c0.5-0.1,1.3-0.1,1.9-0.1c1.6,0,3.1,0.4,4,1.3c0.9,0.8,1.3,2,0.9,3.7
		c-0.4,1.5-1.2,2.7-2.3,3.5c-1.8,1.3-4.3,1.8-6.7,1.8c-1.7,0-2.9-0.1-3.7-0.2l3.6-15.3H234z M224.2,160.9c0.4,0.1,0.8,0.1,1.3,0.1
		c0.8,0,1.8-0.3,2.4-0.8c0.6-0.4,1-1,1.2-1.8c0.2-0.8,0-1.3-0.4-1.7c-0.5-0.5-1.3-0.7-2.1-0.7c-0.4,0-0.8,0-1.3,0.1L224.2,160.9z"/>
	<path class="st0" d="M249.7,155.6c-1.2,5-5,8.1-9.5,8.1c-4.6,0-6.4-3.4-5.4-7.8c1.1-4.6,4.8-8.1,9.4-8.1
		C248.9,147.8,250.7,151.3,249.7,155.6z M238.5,155.8c-0.7,3,0.2,5.1,2.5,5.1c2.3,0,4.2-2.2,4.9-5.2c0.6-2.8-0.1-5.1-2.5-5.1
		C241.1,150.5,239.2,152.8,238.5,155.8z"/>
	<path class="st0" d="M253.7,148.2c1.1-0.2,2.7-0.3,4.8-0.3c2.1,0,3.6,0.4,4.4,1.2c0.8,0.8,1.2,2.1,0.8,3.6
		c-0.4,1.5-1.2,2.8-2.3,3.7c-1.4,1.1-3.3,1.6-5.4,1.6c-0.5,0-0.9,0-1.2-0.1l-1.3,5.5h-3.4L253.7,148.2z M255.5,155.2
		c0.3,0.1,0.6,0.1,1.1,0.1c1.8,0,3.2-0.9,3.6-2.5c0.3-1.4-0.4-2.3-2.2-2.3c-0.7,0-1.2,0.1-1.5,0.1L255.5,155.2z"/>
	<path class="st0" d="M269.3,148l1,5.4c0.2,1.1,0.3,2,0.4,2.9h0.1c0.4-0.7,0.9-1.7,1.5-3l2.9-5.4h3.6l-4.6,7.5
		c-1.5,2.4-3,4.7-4.5,6.1c-1.3,1.3-2.8,2-4.6,2c-0.8,0-1.3-0.1-1.7-0.3l0.9-2.8c0.3,0.1,0.6,0.1,1.1,0.1c1.1,0,2-0.7,2.4-1.4
		c0.2-0.3,0.2-0.5,0.1-0.7l-2.7-10.6H269.3z"/>
	<path class="st0" d="M291.2,148l-3,12.6l1.5,0.1l-1.7,6.5h-2.6l0.7-3.9h-9l-1.1,3.9h-2.6l1.4-6.5l1.3-0.1c0.9-1.1,1.6-2.2,2.3-3.4
		c0.8-1.6,1.4-3.2,1.8-5.1l1-4.1H291.2z M283.2,152.9c-0.4,1.8-1.1,3.5-1.9,5.1c-0.5,0.9-1.1,1.9-1.7,2.6h5.1l2.3-9.7h-3.4
		L283.2,152.9z"/>
	<path class="st0" d="M306.8,155.6c-1.2,5-5,8.1-9.5,8.1c-4.6,0-6.4-3.4-5.4-7.8c1.1-4.6,4.8-8.1,9.4-8.1
		C306.1,147.8,307.8,151.3,306.8,155.6z M295.7,155.8c-0.7,3,0.2,5.1,2.5,5.1c2.3,0,4.2-2.2,4.9-5.2c0.7-2.8-0.1-5.1-2.5-5.1
		C298.3,150.5,296.4,152.8,295.7,155.8z"/>
	<path class="st0" d="M310.8,148.2c1-0.2,2.8-0.3,4.6-0.3c2.1,0,3.4,0.2,4.3,0.9c0.9,0.6,1.5,1.6,1.1,3c-0.3,1.4-1.4,2.6-3.3,3.3
		l0,0c1.6,0.5,2.6,1.8,2.2,3.8c-0.3,1.4-1.2,2.5-2.4,3.3c-1.3,0.9-3.3,1.4-6.4,1.4c-1.7,0-3-0.1-3.7-0.2L310.8,148.2z M311.3,160.9
		c0.3,0,0.7,0,1.3,0c1.6,0,3.1-0.6,3.5-2.2c0.4-1.6-0.9-2.2-2.6-2.2h-1.2L311.3,160.9z M312.9,154.1h1.1c1.8,0,3-0.8,3.3-1.9
		c0.3-1.2-0.5-1.8-2-1.8c-0.8,0-1.2,0-1.5,0.1L312.9,154.1z"/>
	<path class="st0" d="M325.5,159.5l-2,3.9h-3.6l8.3-15.4h4.6l1.2,15.4h-3.7l-0.3-3.9H325.5z M330,156.9l-0.2-3.3
		c-0.1-0.9-0.1-2.1-0.1-3h0c-0.4,0.9-0.9,2.1-1.4,3l-1.7,3.3H330z"/>
	<path class="st0" d="M343,148l-1.4,5.9h5.7l1.4-5.9h3.5l-3.6,15.4h-3.5l1.5-6.4h-5.7l-1.5,6.4h-3.5l3.6-15.4H343z"/>
	<path class="st0" d="M358.5,148l-1.1,4.6c-0.6,2.5-1.2,4.9-1.8,7h0.1c1.2-1.8,2.7-3.8,4-5.5l4.7-6h3.6l-3.6,15.4h-3.2l1.1-4.5
		c0.6-2.4,1.1-4.5,1.8-6.5h-0.1c-1.1,1.8-2.6,3.9-3.9,5.5l-4.4,5.5h-4l3.6-15.4H358.5z"/>
	<path class="st0" d="M366.1,163.4c0.4-0.5,0.8-1.1,1.2-1.7c1-1.8,1.8-3.6,3.2-4.7c0.4-0.3,0.9-0.6,1.5-0.8l0-0.1
		c-1.6-0.3-2.9-1.5-2.4-3.7c0.3-1.4,1.2-2.5,2.4-3.3c1.4-0.9,3.3-1.2,5.3-1.2c1.7,0,3.3,0.1,4.3,0.3l-3.6,15.2h-3.4l1.4-6h-0.8
		c-0.7,0-1.3,0.2-1.8,0.6c-1.2,0.9-2.1,2.9-2.8,4.2c-0.3,0.5-0.5,0.8-0.9,1.3H366.1z M377.6,150.6c-0.2,0-0.7-0.1-1.4-0.1
		c-1.5,0-2.9,0.6-3.2,2.2c-0.3,1.4,0.8,2.2,2.4,2.2c0.5,0,0.9,0,1.3-0.1L377.6,150.6z"/>
</g>
<polygon class="st1" points="328.3,83.9 365.9,83.8 370.4,89.4 377.8,83.6 426,83.6 394.3,80.6 415,76.9 387.7,77.3 404.1,68 
	383.4,74.3 402.4,52.4 378.9,70.5 383.1,55.7 373.7,71.1 369.5,26.6 367.9,72.5 358.1,57.5 364,75.7 342.2,75.6 359.9,79.4 "/>
<g>
	<path class="st1" d="M127.7,195.7c-4.9-6.6-8-14.1-9.6-22.2h-14.3c2.3,7.9,5.8,15.2,10.8,21.9c31.5,42.2,106.7,39.5,168-6.2
		c1.8-1.4,3.6-2.8,5.4-4.2C229.1,228.7,154.7,232,127.7,195.7z"/>
	<path class="st1" d="M336.6,29.9c-31.5-42.2-106.7-39.5-168,6.2c-15.9,11.8-29.3,25.4-39.8,39.7H157c8.3-8.9,17.7-17.4,28.2-25.2
		C244,6.9,313.6,0.8,340.6,37.1c1,1.3,1.9,2.6,2.7,4C341.4,37.2,339.2,33.5,336.6,29.9z"/>
</g>
<g>
	<g>
		<path class="st0" d="M57.5,137c-0.5,0-0.8-0.4-0.7-0.9l9.7-33.4c0.1-0.5,0.6-1.2,1-1.5l18-14c0.4-0.3,1.2-0.6,1.7-0.6h28.3
			c0.5,0,0.8,0.4,0.7,0.9L102,136.1c-0.1,0.5-0.7,0.9-1.2,0.9h-8.1c-0.5,0-0.8-0.4-0.7-0.9l3.8-13.2c0.1-0.5-0.2-0.9-0.7-0.9H71.9
			c-0.5,0-1.1,0.4-1.2,0.9l-3.8,13.2c-0.1,0.5-0.7,0.9-1.2,0.9H57.5z M98.1,111.9c0.5,0,1.1-0.4,1.2-0.9l3.9-13.4
			c0.1-0.5-0.2-0.9-0.7-0.9H89.3c-0.5,0-1.3,0.3-1.7,0.6l-11.5,9c-0.4,0.3-0.9,1-1,1.5l-0.9,3.2c-0.1,0.5,0.2,0.9,0.7,0.9H98.1z"/>
		<path class="st0" d="M57.5,137c-0.5,0-0.8-0.4-0.7-0.9l9.7-33.4c0.1-0.5,0.6-1.2,1-1.5l18-14c0.4-0.3,1.2-0.6,1.7-0.6h28.3
			c0.5,0,0.8,0.4,0.7,0.9L102,136.1c-0.1,0.5-0.7,0.9-1.2,0.9h-8.1c-0.5,0-0.8-0.4-0.7-0.9l3.8-13.2c0.1-0.5-0.2-0.9-0.7-0.9H71.9
			c-0.5,0-1.1,0.4-1.2,0.9l-3.8,13.2c-0.1,0.5-0.7,0.9-1.2,0.9H57.5z M98.1,111.9c0.5,0,1.1-0.4,1.2-0.9l3.9-13.4
			c0.1-0.5-0.2-0.9-0.7-0.9H89.3c-0.5,0-1.3,0.3-1.7,0.6l-11.5,9c-0.4,0.3-0.9,1-1,1.5l-0.9,3.2c-0.1,0.5,0.2,0.9,0.7,0.9H98.1z"/>
	</g>
	<g>
		<path class="st0" d="M167.3,137c-0.5,0-1.2-0.3-1.5-0.8l-2.4-3.4c-0.3-0.4-0.4-1.2-0.3-1.7l11.2-38.5c0.1-0.5,0.6-1.2,1-1.5l5-3.9
			c0.4-0.3,1.2-0.6,1.7-0.6h33.4c0.5,0,1.2,0.4,1.5,0.8l2.4,3.5c0.3,0.4,0.4,1.2,0.3,1.7l-11.2,38.5c-0.1,0.5-0.6,1.2-1,1.5
			l-4.9,3.8c-0.4,0.3-1.2,0.6-1.7,0.6H167.3z M198.6,127c0.5,0,1.1-0.4,1.2-0.9l8.3-28.4c0.1-0.5-0.2-0.9-0.7-0.9h-23.2
			c-0.5,0-1.1,0.4-1.2,0.9l-8.3,28.4c-0.1,0.5,0.2,0.9,0.7,0.9H198.6z"/>
		<path class="st0" d="M167.3,137c-0.5,0-1.2-0.3-1.5-0.8l-2.4-3.4c-0.3-0.4-0.4-1.2-0.3-1.7l11.2-38.5c0.1-0.5,0.6-1.2,1-1.5l5-3.9
			c0.4-0.3,1.2-0.6,1.7-0.6h33.4c0.5,0,1.2,0.4,1.5,0.8l2.4,3.5c0.3,0.4,0.4,1.2,0.3,1.7l-11.2,38.5c-0.1,0.5-0.6,1.2-1,1.5
			l-4.9,3.8c-0.4,0.3-1.2,0.6-1.7,0.6H167.3z M198.6,127c0.5,0,1.1-0.4,1.2-0.9l8.3-28.4c0.1-0.5-0.2-0.9-0.7-0.9h-23.2
			c-0.5,0-1.1,0.4-1.2,0.9l-8.3,28.4c-0.1,0.5,0.2,0.9,0.7,0.9H198.6z"/>
	</g>
	<g>
		<path class="st0" d="M214.8,137c-0.5,0-0.8-0.4-0.7-0.9l14.1-48.6c0.1-0.5,0.7-0.9,1.2-0.9h38.3c0.5,0,1.2,0.4,1.5,0.8l2.4,3.5
			c0.3,0.4,0.4,1.2,0.3,1.7l-3.9,13.3c-0.1,0.5-0.6,1.2-1,1.5l-4.9,3.9c-0.4,0.3-0.5,0.9-0.2,1.4l2.4,3.5c0.3,0.4,0.4,1.2,0.3,1.7
			l-3.9,13.3c-0.1,0.5-0.6,1.2-1,1.5l-4.9,3.8c-0.4,0.3-1.2,0.6-1.7,0.6H214.8z M256.9,106.9c0.5,0,1.1-0.4,1.2-0.9l2.4-8.3
			c0.1-0.5-0.2-0.9-0.7-0.9h-23.2c-0.5,0-1.1,0.4-1.2,0.9l-2.4,8.3c-0.1,0.5,0.2,0.9,0.7,0.9H256.9z M251,127c0.5,0,1.1-0.4,1.2-0.9
			l2.4-8.2c0.1-0.5-0.2-0.9-0.7-0.9h-23.2c-0.5,0-1.1,0.4-1.2,0.9l-2.4,8.2c-0.1,0.5,0.2,0.9,0.7,0.9H251z"/>
		<path class="st0" d="M214.8,137c-0.5,0-0.8-0.4-0.7-0.9l14.1-48.6c0.1-0.5,0.7-0.9,1.2-0.9h38.3c0.5,0,1.2,0.4,1.5,0.8l2.4,3.5
			c0.3,0.4,0.4,1.2,0.3,1.7l-3.9,13.3c-0.1,0.5-0.6,1.2-1,1.5l-4.9,3.9c-0.4,0.3-0.5,0.9-0.2,1.4l2.4,3.5c0.3,0.4,0.4,1.2,0.3,1.7
			l-3.9,13.3c-0.1,0.5-0.6,1.2-1,1.5l-4.9,3.8c-0.4,0.3-1.2,0.6-1.7,0.6H214.8z M256.9,106.9c0.5,0,1.1-0.4,1.2-0.9l2.4-8.3
			c0.1-0.5-0.2-0.9-0.7-0.9h-23.2c-0.5,0-1.1,0.4-1.2,0.9l-2.4,8.3c-0.1,0.5,0.2,0.9,0.7,0.9H256.9z M251,127c0.5,0,1.1-0.4,1.2-0.9
			l2.4-8.2c0.1-0.5-0.2-0.9-0.7-0.9h-23.2c-0.5,0-1.1,0.4-1.2,0.9l-2.4,8.2c-0.1,0.5,0.2,0.9,0.7,0.9H251z"/>
	</g>
	<g>
		<path class="st0" d="M290.1,86.6c0.5,0,0.8,0.4,0.7,0.9l-3.8,13.2c-0.1,0.5,0.2,0.9,0.7,0.9h28.3c0.5,0,1.2,0.4,1.5,0.8l2.4,3.5
			c0.3,0.4,0.4,1.2,0.3,1.7l-6.8,23.4c-0.1,0.5-0.6,1.2-1,1.5l-5,3.9c-0.4,0.3-1.2,0.6-1.7,0.6h-38.3c-0.5,0-0.8-0.4-0.7-0.9
			l14.1-48.6c0.1-0.5,0.7-0.9,1.2-0.9H290.1z M284.7,111.8c-0.5,0-1.1,0.4-1.2,0.9l-3.9,13.4c-0.1,0.5,0.2,0.9,0.7,0.9h23.2
			c0.5,0,1.1-0.4,1.2-0.9l3.9-13.4c0.1-0.5-0.2-0.9-0.7-0.9H284.7z"/>
		<path class="st0" d="M290.1,86.6c0.5,0,0.8,0.4,0.7,0.9l-3.8,13.2c-0.1,0.5,0.2,0.9,0.7,0.9h28.3c0.5,0,1.2,0.4,1.5,0.8l2.4,3.5
			c0.3,0.4,0.4,1.2,0.3,1.7l-6.8,23.4c-0.1,0.5-0.6,1.2-1,1.5l-5,3.9c-0.4,0.3-1.2,0.6-1.7,0.6h-38.3c-0.5,0-0.8-0.4-0.7-0.9
			l14.1-48.6c0.1-0.5,0.7-0.9,1.2-0.9H290.1z M284.7,111.8c-0.5,0-1.1,0.4-1.2,0.9l-3.9,13.4c-0.1,0.5,0.2,0.9,0.7,0.9h23.2
			c0.5,0,1.1-0.4,1.2-0.9l3.9-13.4c0.1-0.5-0.2-0.9-0.7-0.9H284.7z"/>
	</g>
	<g>
		<path class="st0" d="M341.8,86.6c0.5,0,0.8,0.4,0.7,0.9l-14.1,48.6c-0.1,0.5-0.7,0.9-1.2,0.9h-8.2c-0.5,0-0.8-0.4-0.7-0.9
			l14.1-48.6c0.1-0.5,0.7-0.9,1.2-0.9H341.8z"/>
		<path class="st0" d="M341.8,86.6c0.5,0,0.8,0.4,0.7,0.9l-14.1,48.6c-0.1,0.5-0.7,0.9-1.2,0.9h-8.2c-0.5,0-0.8-0.4-0.7-0.9
			l14.1-48.6c0.1-0.5,0.7-0.9,1.2-0.9H341.8z"/>
	</g>
	<g>
		<path class="st0" d="M394.2,86.6c0.5,0,0.8,0.4,0.7,0.9l-14.1,48.6c-0.1,0.5-0.7,0.9-1.2,0.9h-8.1c-0.5,0-0.8-0.4-0.7-0.9
			l9.2-31.7c0.1-0.5,0-0.6-0.4-0.3L346,136.4c-0.4,0.4-1.1,0.7-1.7,0.7h-8.2c-0.5,0-0.8-0.4-0.7-0.9l14.1-48.6
			c0.1-0.5,0.7-0.9,1.2-0.9h8.2c0.5,0,0.8,0.4,0.7,0.9l-9.3,31.8c-0.1,0.5,0,0.6,0.4,0.3l33.5-32.3c0.4-0.4,1.1-0.7,1.7-0.7H394.2z"
			/>
		<path class="st0" d="M394.2,86.6c0.5,0,0.8,0.4,0.7,0.9l-14.1,48.6c-0.1,0.5-0.7,0.9-1.2,0.9h-8.1c-0.5,0-0.8-0.4-0.7-0.9
			l9.2-31.7c0.1-0.5,0-0.6-0.4-0.3L346,136.4c-0.4,0.4-1.1,0.7-1.7,0.7h-8.2c-0.5,0-0.8-0.4-0.7-0.9l14.1-48.6
			c0.1-0.5,0.7-0.9,1.2-0.9h8.2c0.5,0,0.8,0.4,0.7,0.9l-9.3,31.8c-0.1,0.5,0,0.6,0.4,0.3l33.5-32.3c0.4-0.4,1.1-0.7,1.7-0.7H394.2z"
			/>
	</g>
	<g>
		<path class="st0" d="M48.8,106.8C48.8,106.8,48.8,106.8,48.8,106.8c0,0-0.4,0-1,0H24.6c-0.5,0-1,0-1,0c0,0,0.1-0.4,0.3-0.9
			l2.4-8.3c0.1-0.5,0.7-0.9,1.2-0.9h23.2c0.5,0,1.4,0,1.9,0h8.1c0.5,0,1.1-0.4,1.2-0.9l0.9-3.1c0.1-0.5,0.4-1.3,0.5-1.8l1-3.3
			c0.1-0.5-0.2-0.9-0.7-0.9H20.4c-0.5,0-1.1,0.4-1.2,0.9L5,136.1c-0.1,0.5,0.2,0.9,0.7,0.9h38.3c0.5,0,1.3-0.3,1.7-0.6l4.9-3.8
			c0.4-0.3,0.9-1,1-1.5l5.4-18.4c0.1-0.5,0.1-1.3-0.1-1.8l-0.4-0.8c-0.2-0.5-0.6-1.2-0.9-1.7l-1-1.6 M43.2,126
			c-0.1,0.5-0.7,0.9-1.2,0.9H18.8c-0.5,0-0.8-0.4-0.7-0.9l2.4-8.2c0.1-0.5,0.7-0.9,1.2-0.9h23.2c0.5,0,0.8,0.4,0.7,0.9L43.2,126z"/>
		<path class="st0" d="M48.8,106.8C48.8,106.8,48.8,106.8,48.8,106.8c0,0-0.4,0-1,0H24.6c-0.5,0-1,0-1,0c0,0,0.1-0.4,0.3-0.9
			l2.4-8.3c0.1-0.5,0.7-0.9,1.2-0.9h23.2c0.5,0,1.4,0,1.9,0h8.1c0.5,0,1.1-0.4,1.2-0.9l0.9-3.1c0.1-0.5,0.4-1.3,0.5-1.8l1-3.3
			c0.1-0.5-0.2-0.9-0.7-0.9H20.4c-0.5,0-1.1,0.4-1.2,0.9L5,136.1c-0.1,0.5,0.2,0.9,0.7,0.9h38.3c0.5,0,1.3-0.3,1.7-0.6l4.9-3.8
			c0.4-0.3,0.9-1,1-1.5l5.4-18.4c0.1-0.5,0.1-1.3-0.1-1.8l-0.4-0.8c-0.2-0.5-0.6-1.2-0.9-1.7l-1-1.6 M43.2,126
			c-0.1,0.5-0.7,0.9-1.2,0.9H18.8c-0.5,0-0.8-0.4-0.7-0.9l2.4-8.2c0.1-0.5,0.7-0.9,1.2-0.9h23.2c0.5,0,0.8,0.4,0.7,0.9L43.2,126z"/>
	</g>
	<g>
		<path class="st0" d="M167.1,92.6c0.1-0.5,0-1.3-0.3-1.7l-2.4-3.5c-0.3-0.4-1-0.8-1.5-0.8h-38.3c-0.5,0-1.1,0.4-1.2,0.9l-2.4,8.2
			c-0.1,0.5,0.2,0.9,0.7,0.9h8.2c0.5,0,1.4,0,1.9,0h18.9c0.5,0,1.4,0,1.9,0h2.4c0.5,0,0.8,0.4,0.7,0.9l-2.4,8.3
			c-0.1,0.5-0.7,0.9-1.2,0.9h-23.2c-0.5,0-1,0-1,0c0,0-0.4,0-1,0h-8.2c-0.5,0-1.1,0.4-1.2,0.9l-2.4,8.2c-0.1,0.5,0.2,0.9,0.7,0.9
			h8.2c0.5,0,1.4,0,1.9,0h14.7c0.5,0,1.4,0,1.9,0h6.6c0.5,0,0.8,0.4,0.7,0.9l-2.4,8.2c-0.1,0.5-0.7,0.9-1.2,0.9h-23.2
			c-0.5,0-1,0-0.9,0c0,0-0.4,0-0.9,0h-8.2c-0.5,0-1.1,0.4-1.2,0.9l-2.4,8.3c-0.1,0.5,0.2,0.9,0.7,0.9h38.3c0.5,0,1.3-0.3,1.7-0.6
			l4.9-3.8c0.4-0.3,0.9-1,1-1.5l3.9-13.3c0.1-0.5,0-1.3-0.3-1.7l-2.4-3.5c-0.3-0.4-0.2-1.1,0.2-1.4l4.9-3.9c0.4-0.3,0.9-1,1-1.5
			L167.1,92.6z"/>
		<path class="st0" d="M167.1,92.6c0.1-0.5,0-1.3-0.3-1.7l-2.4-3.5c-0.3-0.4-1-0.8-1.5-0.8h-38.3c-0.5,0-1.1,0.4-1.2,0.9l-2.4,8.2
			c-0.1,0.5,0.2,0.9,0.7,0.9h8.2c0.5,0,1.4,0,1.9,0h18.9c0.5,0,1.4,0,1.9,0h2.4c0.5,0,0.8,0.4,0.7,0.9l-2.4,8.3
			c-0.1,0.5-0.7,0.9-1.2,0.9h-23.2c-0.5,0-1,0-1,0c0,0-0.4,0-1,0h-8.2c-0.5,0-1.1,0.4-1.2,0.9l-2.4,8.2c-0.1,0.5,0.2,0.9,0.7,0.9
			h8.2c0.5,0,1.4,0,1.9,0h14.7c0.5,0,1.4,0,1.9,0h6.6c0.5,0,0.8,0.4,0.7,0.9l-2.4,8.2c-0.1,0.5-0.7,0.9-1.2,0.9h-23.2
			c-0.5,0-1,0-0.9,0c0,0-0.4,0-0.9,0h-8.2c-0.5,0-1.1,0.4-1.2,0.9l-2.4,8.3c-0.1,0.5,0.2,0.9,0.7,0.9h38.3c0.5,0,1.3-0.3,1.7-0.6
			l4.9-3.8c0.4-0.3,0.9-1,1-1.5l3.9-13.3c0.1-0.5,0-1.3-0.3-1.7l-2.4-3.5c-0.3-0.4-0.2-1.1,0.2-1.4l4.9-3.9c0.4-0.3,0.9-1,1-1.5
			L167.1,92.6z"/>
	</g>
</g>
</svg>
